<mxfile host="www.draw.io" modified="2020-04-03T03:18:19.152Z" agent="Mozilla/5.0 (Windows NT 10.0; WOW64) AppleWebKit/537.36 (KHTML, like Gecko) Chrome/78.0.3904.108 Safari/537.36" etag="Hlmi73boznU2XEiaSLpM" version="12.8.8" type="github">
  <diagram id="V0AGQRrD-EWGFHz18HPF" name="应用场景">
    <mxGraphModel dx="1304" dy="1638" grid="1" gridSize="10" guides="1" tooltips="1" connect="1" arrows="1" fold="1" page="1" pageScale="1" pageWidth="827" pageHeight="1169" math="0" shadow="0">
      <root>
        <mxCell id="0" />
        <mxCell id="1" parent="0" />
        <mxCell id="BWZjfHxMxovDK7LopNrh-43" value="" style="rounded=0;whiteSpace=wrap;html=1;dashed=1;fillColor=none;fontSize=14;fontColor=#4D4D4D;labelBackgroundColor=none;" vertex="1" parent="1">
          <mxGeometry x="130" y="-232" width="680" height="482" as="geometry" />
        </mxCell>
        <mxCell id="BWZjfHxMxovDK7LopNrh-5" value="" style="shape=parallelogram;perimeter=parallelogramPerimeter;whiteSpace=wrap;html=1;dashed=1;fillColor=#E6E6E6;strokeColor=#666666;fontColor=#333333;" vertex="1" parent="1">
          <mxGeometry x="140" y="100" width="650" height="100" as="geometry" />
        </mxCell>
        <mxCell id="BWZjfHxMxovDK7LopNrh-6" value="" style="shape=image;verticalLabelPosition=bottom;labelBackgroundColor=#ffffff;verticalAlign=top;aspect=fixed;imageAspect=0;image=data:image/png,iVBORw0KGgoAAAANSUhEUgAAAgAAAACjCAYAAAD8b6aTAAAgAElEQVR4Ae2dC3xU1bX/f2dm8pQICEEkRAkCRUBADCKJUIn2UqHKw2sRLw8Ftbcq4P+2ta0FP61Q37QCYm+xYEEqctuCVAFbFRRIQI2CCKgUCa8AAgEEJJlkZs7/s/Z5zDlnzpmZJDPMZLLO54PnsffZj+8Zs9Zee+21JVmWZfDBBJgAE2ACTIAJNCsCrmbVW+4sE2ACTIAJMAEmIAiwAsA/BCbABJgAE2ACzZAAKwDN8KNzl5kAE2ACTIAJsALAvwEmwASYABNgAs2QACsAzfCjc5eZABNgAkyACbACwL8BJsAEmAATYALNkIAnJn2mlYTV1ZC//hry/v0IHDoE//HjCJw9B/h9kNLT4WrdGq527eDKz4friisgX3KJeB6T+rkQJsAEmAATYAJMoF4EGq4ABAKQq6oQ+Owz1G7ejLpPtsJXsRcBUgS8XqC2FvD5AFIOXC4gLU0IfCkzE66sLHh69UL6gAFIGzAAUteukFq0qFfDOTMTYAJMgAkwASbQcAJSvQMBkeCvPIza9etQs3YtfLt2IXDiBAKnTkGuro66Ja6cHLjatIGrbVukX3cdMkeMhGfAdUDLllGXwRmZABNgAkyACTCBhhGonwJw4gRq33kX1f9YhbqtW+E/eBDyt982rGbDW65LLoG7Uydk3HADMv/zP+Hp3x/IzDTk4EsmwASYABNgAkwglgSiUwD8fvh37oR32WuoWbMadV99FRPBb+0IWQTSrumHrNtHI+O22yB16GDNwvdMgAkwASbABJhADAhEVgB8PtRt2IDqJUvg/de/4D9yJKpqtQ0GJAASFB8A+GoRaesBchj0FHQWSkDm+PFwde8eVX2ciQkwASbABJgAE4ieQHgFoLYWdevW4fyCl+Bdvw6B06cjl+x2w53bDmlX94KnSxdIbdpAapEDZGQC1echnziOuo8+Qu3WrQicO+dYnicvD1l33IGse++Fq0cPQCJVgg8m0FQJVGHV1KGYWTYOi8ofRm+7bmx7HoX3LsW4P5Xj4b52GfgZE2ACTCB2BJxXAQQC8G3ZgvMLFqDm3XchnzkToVYJ7latkFEyBGmDByOtTx+4r7gCUuvWQFYW4PEAdXXAqVPCf0D64x9R8957juX6KitxfvlysYIg66GH4CooiFB/c05WhQtm4J9zR6BNjFBU/WMahj5e4Cyw6lPPsVWYNmwmSo3vFEXX3u1zCzFpT3R5jcU7X2vC2JwjOsG7Hc8XrkOJkxA3Fxm82/YKZpYB4/7kIPwBbN+wFCiagfEs/IPc+IoJMIG4EXBUAOQvv0T1yy/D+/77jkJaaxUt7UvrfhUyb70NGbcOh7tnTyA7W0sOnt1u4LLLkJabi+waL3x796Jux45guuWKphuq/++vcLVshaxpUy/YCgFF8JlElaVldrfFmLFmDka0M6cJ4bXE/Cyau+LH/ok5t8VKlFtqtBPGapbohGCwvKhZkbAvL4+ZchJsgeVKHUVbnobcUj/L55ofb9+2HbAfm6sZSXGYhKVFxSjYBvSOWlBXYdWipaKMpfcWQrky1l2MGX8qwTrxO5mJoYUzjYnK9YTfY8ae/yeUiJDECYuwCJMwKYrfWX2/b0hd/IAJMIGUIWCvAJw7h5olS8Qyv8DJk2E7S+v30/v3R/Y99yDj1luBVq3C5heJHg88xUVwXXopEEYBoLy+Qwdx/rXX4O7VE+kjRyoxBSLX0PgcUY5ORUVCoK5zrnPCIpRPNRh9VQFcYGvqpRHmJFQ4lxazFLMwUOoNKbyoAHkhD4MP2tw2B+W3Be9NV2H7acoZ4xt7ZSxSJb37Gr5RSGbNahDGhB/yjvpAH/2XY/yBaRi6b7L590Cj/7mFKBW/E+D5woUosFEmgXKMoCKFklNhUji3kzJj/J2F5HH4vk5t5udMgAmkPAHbUMC+Dz/E+VWr4P/667AApKwspF97LS566CFk3HFHdMJfKzEnB1JamnYX9uw7sB/Vf/kL5MOHw+ZrKolVW9ahlE29TeVziXZun0vz96RY2JjwSdEpfB5kPwg9tuP5e5cK4Szm9S8vQPGSSZj2jyqRlQR/YWEhJi0Zh0WkJB4DUFSKmcOcygutgZ8wASbABBpCIEQBkM+eRfWrr8IfSdhKEjxXdkH2xIlIHz68/uv2jx2LOnAQxRqo/eQT1P3rbSAQaEg/E/+OEBLKH/uhj5cCZWTqVe5JAIh/c+1FiLXxZHYvnLoKigixpir3QrBEyGP/pjIapfY0tp1O5Tet5zTyJwEdzqpQgIKipZhUOA2rSIAbjqp/LMRSw8i8Td+HMedP41D6zibx/XoPHidy674B7Xrj4ekzUIylWLfNUBBfMgEmwARiTCBkCkD+7DMx7x/45puwVZGnf+aw4WK9PjIywuYViRQWuLZWhAmWyRFw5UoRSCjyi0qOwNfHUP36SqSNuE2sLIj2vcblU8ymoXO2Wqn1NQc7CxExl75PKzfceTteIQViwuQw8+mkGhQLJeOVbSMcPcrt5qNJHPWeWo7yqYBo0zslBsdCxQy+rpNhUiCKOfdS23lv6qMzj3AEIqfRCLoQNjPpkV81Tf1oZv8I7SShPbcc48lpclghKgxTO2KKxFpr34eD/gd9x2NG0VLM3LAdD2tTEO1GYE65MPZb3wx/v2QSCi1+AFYOiroRvhhOZQJMoHkQCFEAvO++i0jCn+L6pxcXIXPsGKBNGEc1vx/ysWPwHTmCwOEjcNHGQLKMwN69qF6+HIEjR5XlfbRfQIRDrj6Pul27IO/YAem7342QO1bJvfFweTketimuYc59EQTThMk2NVkebVuHpSQ47ww3X90Gvac+hhl7hmLmvc87eqxH5QNgqT7kloRZuR0hAAnzAaivYhbSK73tpXAoK4ziQ4pVhe7EGUmJVOsuCxXeeqtMSon+NPTCYGkI9RNgH4BQYPyECTRvAiYFQK6thXfTJshnzoal4mnfHuk33AB3r172+WQZNJXg+/xz+NasgXfDRsjfnFEc+Xr2hKttG2T+8Idw5X+A2h2fwX/oIOTz5+3LMjwNnD2L2i1bkHnBFABViM0CHjMtr9uueGxPKAnrM25ounrpPJKMzgKgepNPWBSy2iC0rjYYMWkcZpYtxcJ/jG/QioLKfbQSoiS06JR/sh3P60sWybRvYwMiYeuk+AjlYCimgVZyKLAauqpDscIoZViVTm10T2VHoTqm/FfjDjIBJlA/AiYFACdOwLdnD2RvTZhSJKT17o304mJlbb81J20WdOKEmK8/+/RTqNuzB1lDSpDz2Ay4r7tOWR6oBvXJPHcOdW+/jW//93/hLS2NGF5Y8QXYikyyGFywwEAFKMAkDJ2KoClcjMKBcYPDjcKtYOi+kRYA4U1ejBnTo6xXMy8//gq232bjvGbXROuzLgVhphqsmVPl3tnyE1UP+z6Mfz5Wgcf3VYb104iqLEMmbWomdHRPfhuGjHzJBJgAE4iCgFkBOHQIMgXrCXO4MrPguaon3HYhekn4HzsG75IlODPrCcAtIfOafsj5w4tw5eeHLuFr0QJpI0Ygp21b4KmnUfP220BdrXPttbXwHzykbDUcjd+Bc0nRp4j53X+iYOpQVQm4AZtoTXd9vfijntd1cgSsz+hf617QCjBpbknI0jMnHwDl7SpU7AHQRSuLzpWoKANws/EZX9sRoLn/OWoCTSMBijMhBQOK5tAsBmGXWVoLYh8AKxG+ZwJMIAwBkwIQIM98ctYLc3i6doHn2mtCg/KQ2f/UKdT+7W84/YtfQGrZEjl334P03lfDlZcXKvy1OlwuuGgXwDEV8O/fh7qdO7WUkDMpJ/7jX8ddAQg1fbfBiLmLUFE4CUMLlWaN+1P9Iu5ZzbchnVMfFD+2CCVFCI0DUN/Rv1aBZgVYshCr7jQHKorGB6DY6PCnlllwueL3IczT5JAY4XB2AlRfNM5dRyirXsmqD0LkFlKpNtMz9Xpfa5lNOVoS1aL7Bhgemi5VR0vTsyhvjBw5DkCU0DgbE2i+BEwKAPkAIIxDHrnqkTB3d+wYSszrhe+DD3DmNzNF6N/s/xiKzNtuhUym+gjmekmSkF7YH7U9e4ZVAESl1L4wbQxtWAOfhJi+e+PhNTNQQXPDUY/+lVF08c156H2b4lmvtybkD7SWUoVV72jX2jm4ltwaaVDL4XwOWgFmvrYdI4wBiZxfAo5twrqyYpRMd3byjDg6TYATYNWBCqCoxBS8yKzo2HRa/RY2KeJRxPe1F0V/wwSE0vLF4SymB8KWq0xrhM3CiUyACTQrAiYFgHbiiySsXa1bwUXx/S1H4PBheP/vr/CdOAZPx45o8fA0selP2s03Bz39aYogEAAJfFBYYINiIHW4DK4OeZDS0iGHmwagd1wh4QssrYnHrcExjNbwzy0IManHo1ZRpggOowaKaUglqhVg3Z4KbEfv6BwXD1egFAWYbAlt3JDqL+Q7wnrTJdwSyQvZmtC6Sh8fisLHQ59bnxTXa5rFeaWB5iiolx/tigL9Bb5gAkwgVQmYFABXbi4k2rQnzEHpIXlobv6LL1H9jzfgbtkS2SNHQe7RA76//x3pV1whBL3vrbdQ89e/ifj/pCBkTRgPd1ER0KKFUlt2NqRWrUD7CjgpABQ50N2uPWgZYvyO4Kg9WAeZZSdhqbYkTIwYJ6EQlhC/9II6CiwRoVyVOfOCSW0My8qCpdKV+Q80LTkbH8xgsBI8PDdKx7/g24YrmsJQw8ganuqXoh7V053W7E+YgRl7lgpzdWNq1cu/YBd23+6CVR5VRZGnAKIqRs2kCn6xIsGyXNXw26m/1ag+beC8TIAJNFUCJmkv0e59EYSr7PWKYD7GzXlpyZ//yy/gP31SxPdP63EVpMOHkTFosIgQWPfiizj9+ONiO2FhAXC5ULNuPS6e/SzSb7sNuOgiJUhQdTUQzgchPR3u/I4AWSridQjTNyCEtqhDCwZjWA+uenkPfVxTAmilQCkqRKRiw8hZrBYYh0Vi0xhLcBfHP9BVlvn/AhTEaRRudAIMCiZDf+dazP/HKlCBYpR0iBf8RpYbxbRFI2to9OvRWgCUimz8CQzK2sxhtFOjRfA3uoVcABNgAs2FgEkBoKA+nq5dRRhgucZ+KWDg1CnQBkEmI/y5cwgcPAiZ5ubJPC/LYivhtNGj4VuyBKd/8xv4T5zQ5+7Jl8D39RF433gD7quvVuIJVFVBPnoEgZpqR/bSRRchvV8/09SBY+aGJgjT9zhMFkJbHWGR2bTc7PRH89//xDS8gjyx1KvAxnFP297VEDcvila1QUEXoHRfJXA5xYUPvxmPUqDqnV8UuXjNcY8EfrnNboPhYt6LPQzqMy0gWAIXaiNnZY+FEjwWJ4UpMt3IOYKKVoS8qoIYzGVQzMrLo5vGCb7MV0yACTCBEAJmBSAtTQTZqd26FXYKAI36A5WHEThUaSqIvPPlc+fEM1qrX7dtGzJ/8ANU/+73OPeHF+FThb/RakAx/QMk9GnUD8D/xRfwVVToSoKpAvXGlXOxiEBolxabZ8Gldr2hCH+K6GYnKKk+UgK0GHgktCmc6/hOmhPadryyhPZ/H4E2hlGbtZ3mKQBKHYcZjxUD71RgO5XVpcRmHb4mDIylUXwAs5JiTNWuwzruHVuFhaLN2mqB0HrG/WmOs/Cx6+eERY6hiLU2xeashEim9lnsFjBaOpzrKnZMiu597fXiOIVOcpjGibBSIfT3Zdk1UGs2n5kAE2h2BMwKAID0m2+G6+WXQUsC7Y66r/ag7uNypN/yfT0MsPALyMwU2UkR+PZvf0PN++/D06UrWvz3f8N18cUgywGt8/du3w7QNAIAT48eIL8Desf7/gbUbf/MrkrxTMrORtrVveByij7o+GY9ElQTshZoR1m/Hd37vacuwjhaJkginITQtuexlCwHwpIQJlyubfFVwDtDMelxpazQLA7CIDRj/Z6ExCqoZz3hwgLXryX1z03TLTpv8+sRvfhDRtv1fF/LHsUqgPpOAWhFO55DvpljTk5gAkyACZgIhCgAUo8eyCy5CeePn0Dg9ClTZrohHwDamS+jvByeoSTuIObw3fn5ECN8v18Ie3rccvFiuAsKlIiBdXVwtWyJun37EDh+HBk9eyHte98TCkDt2rUQexCccd6AyH3ppci+/XYgJ0epMx7/bdQfU2v0OMOGL/Vuaz0Fb73LT8EXjBvsaN2L9nsKxUV7yXCO9n3tlSjyN3wKQKuEz0yACTCB2BAIVQAuughZ48fBu2mjrQJA1ZKJv+aNN9CCRuN5eSLoj6tPH6QVdEZdxV6lZS6XWA6ISy9V7r/+Gt4tH4hwv54uXXDRlIfg6dsXdevX4/xLL6Fux2eOW/1KFDGwsBCe730vQUsAYwObS2nOBOqp1DkpJc0ZIfedCTCBmBIw+fJpJbuvuQbZd9wBdwd7d+/AmTOoWfsWql9ZKuL+07I82hgoa+JE0Dw9mffJh6D6lVeA6moRHvjb3/8eNaWbkN6nD3J++SjSBgxA7apVODd7NrybN4fdDMhzxRXIHj8eUm6u1kQ+MwEmwASYABNgAo0gIMnCdT+0hMBXX+Hbp55C9cqVwlnPmkPypAnzftZ/3oGsuydA6lQA+eBB4dnvXf0maj8sh6tNa6T1HwDZW43Anq+QPuA6pF93HQI1Naj96CPUlZfDt3+/rcOhVp+nUwFaPPAAMu+/LzT8sJaJz0yACTABJsAEmEC9CDgqAOSl7//wI9DIvfqf/4T8zenQgiUX3O3bI+OmEmTcMgxphdeKwD7+r76Cb8cOBPbuReDQYdTtoA1uJKR17YpAwA/acdC3d6++AiC0YOUJ+RVcNGECsn70I0i0mRAfTIAJMAEmwASYQEwIOCsAVHxtLXybt+D8H15Ezb/+pTv3WWum9flpXbrC/Z1ucF+WB1fHDoA/APnIEfh2fY66f38JucYrRvqBs2cAv99aRMi95/LLkfVf/4Wse+6Bq0uX+K79D6mdHzABJsAEmAATSG0C4RUA6rvPB9/mzah57TVUv/km/AcOhCEiiVj+rraXQHJ7xNbCgaqTkH1htvi1lEZ7AaT16IGsMT9Exu23w9WtmyUH3zIBJsAEmAATYAKNJRBZAaAa/H74d++Gd+VK1Kxahbpdu/TAP41tgPF9d24u0q8fiMzbb0f60P+A1L69MZmvmQATYAJMgAkwgRgRiE4BoMpkWXjz15WWwvvOO6jbsgV1u3eLZX2NbYu7bVuk9eyJtEGDkDH0+/Bc01fZH6CxBfP7TIAJMAEmwASYgC2B6BUA7XW/X8zt123aBO9778H3+efwHzwI/9dfh13Kp72unSkoEC0zdF9+OdKuuQYZN90Ez7XXAq1a8Xy/BonPTIAJMAEmwATiRKD+CoDWEHLkO3kS/l27ULd1G2o//VSECK77LDScr6ttW7hbtwaF85VathShgd1XdkFan95C+LuuvFLZFlgy7Rag1cRnJsAEmAATYAJMIMYEGq4AGBsSCIgYANV/+AO+efppJSQwpUsSPAUFyBwxEmnduoJM/a6OHeHKywPatVO29WWhbyTJ10yACTABJsAELgiBkFDADapVkkRwH/++fcrrLpc6yr8SLe6+GxmTJgFZWWzabxBcfokJMAEmwASYQOwJxEQBkM+fh//LL1H7xRfw5OeDvPnT+vdH9rhxcA8cCLjdsW85l8gEmAATYAJMgAk0mEDjFQBaHXDiBAJ79iC9qAgZV1+NtKIioEcPSGlpDW4Yv8gEmAATYAJMgAnEj0DMfADEMkGXCxLP6cfva3HJTIAJMAEmwARiRCA2CkCMGsPFMAEmwASYABNgAheGgO12wBemaq6FCTABJsAEmAATSBQBVgASRZ7rZQJMgAkwASaQQAKsACQQPlfNBJgAE2ACTCBRBFgBSBR5rpcJMAEmwASYQAIJsAKQQPhcNRNgAkyACTCBRBFgBSBR5LleJsAEmAATYAIJJCDd+auAnMD6uWomEDWBxyfuQV7HTlHn54xMgAkwASbgTIAtAM5sOIUJMAEmwASYQMoSYAUgZT8td4wJMAEmwASYgDMBVgCc2XAKE2ACTIAJMIGUJcAKQMp+Wu4YE2ACTIAJMAFnAqwAOLPhFCbABJgAE2ACKUuAFYCU/bTcMSbABJgAE2ACzgRYAXBmwylMgAkwASbABFKWACsAKftpuWNMgAkwASbABJwJsALgzIZTmAATYAJMgAmkLAFWAFL203LHmAATYAJMgAk4E2AFwJkNpzABJsAEmAATSFkCrACk7KfljjEBJsAEmAATcCbACoAzG05hAkyACTABJpCyBFgBSNlPyx1jAkyACTABJuBMgBUAZzacwgSYABNgAkwgZQmwApCyn5Y7xgSYABNgAkzAmYDHOSk2KX27AaOHSGjZApDUIv0B4PN9wFubZRw4CvT7DjCkUEJeLiCpmfx+oOIIsHqTjH1HYtOW6dMl9MwEKj+R8dMVhjKLJCwcBmTXAEtnyVhtSOJLJsAEmAATYAKpSCDuCsCoGyV0ugxwu4MKgAygTUsIwV5bB1x7lQRSFFxGe4QM5FwEnK+R8PIb9EYjjyIJOAsgE8jrJ2H6URmzyqhMCc+R8Adw/iyQVwRAPAegKQYNqZqViYZQ43eYABNgAkzgAhGIuwJw8UWK8Hdpw38hcgGXB8jOAC7KBDLTAY/b0mMJSE8DLibJ3OBDwnOzgDyb93sOk7BsmDkhOxcYMkzCEPX5zjUyJk835xF3oyUs66c8pzyKImGTjx8xASbABJgAE0hSAnFXAML2Wwqa/O3ykc6gTQnYpUd+JuOndgLcMLJviAC/P1+tuQbYqlkLIjeGczABJsAEmAATSBoCiVUAEoWhvWLyp+qPRSHA758mYUiuTWMzgXGzJIyzJJ3fK2PyIstDvmUCTIAJMAEmkEQE4q4ABMJM38sBgNKdstBzchhs7DF8koRxne1LGTJLwhBrksP8fSTB7qgoWMvneybABJgAE2ACCSYQdwXgy/1Abitlzt/Y19NngeOngROngapvgGovkJVhzAF8W02Ogk7qgTlvVHcOgl17N5yioOXRzpqwj6QUaPn5zASYABNgAkwgmQjEXQGgpX4VlUBWZnAVAI36SfCTcnDuPFD6qYyjJxSvf+ErKAGyDJw6A+w+kEy4uC1MgAkwASbABFKDQNwVAFrnX1MLtMgKOvTRGv8T3ygjfBL0lceUa1oxoC0FpDxnvgVOnokhaIc5+xjWwEWlFIEdmD/oZXRaMRvD7XxArH09/gYeeQb4xbO34hJTGpWzHjdunIKepufqDb03eh8mmtLpnfuA+ZvxYO/Ql06u+QlGPhmFA4v26tiXsOGBXtpdXM/UtqfwKJ4Z1qZ+9Wyfh8EPvorrf/lmxHd3vjgQP654FK/bsrbjVoXVP/sBnt5ibFIRfj7/Rrz/4BMwPTZmud6uDmMGvmYCTZdA3BUACvLTr7uEzIygBYCEPpn/y7bLOHwc6HUl0LebJNb9a6sFyUpQdRoo/1zGnkMxAhzDKYB2OUqbTp2OUdu4mMQSsBXCdk0KoxTk3oqJBQMx8mcwCCZFkO//5Zv2wh/AyY/ew5ax9+AZY3XHL8PYFY/iqdED8YiTQNSFuiLc9o1XlQVLX4SysM9YeKKv7YRxsE1bnvwBBj8ZvNeuxmjK0PZ5+PEyevoERg56QkumwB24/voyRZg/OBDLDSkQgnwzNiCU1fu6kLekkULyirEQvmYCqUUg7gpASX8JfbqGrvM/XwMcO6XM/ZPwLylU1v0b8Z4+R06CEvYciqEfgLGCBl9LaJWpvJyXTypLsrWvwR1rvi/m3opn5s/D4EEDoQsaKw19hPoSxoo0J0FmFUwALEItOMqtwub1wM8fAeYPsggtrX7Tu3fhDxun4DJKW3YfBgtBqGbcYn5/y6BXtRKAsfcEr2N2pSg3JkGrl20nxJW2a1YQR856GcELGvG/J253YP6DrwJjH8XPK57A0wVGy8YOzP/ZjfjFxgIsC2M9CZbKV0ygeROIuwLQITdo1jeizs6ECA/cKgcg0z8F/bEemWlAu9bWp424j9UUwGhDcKFcYNksCeunsxLQiC+THK/2noINKzrhkdE/wWqr2V8If+APGzcbRvJtMPzZzRjemNZvfxVP40a8ntsLwzduxoPRljVsNjZYAlnBMvKPtqjG5SvCzy2sSFgv7mQx46tts6/LZrpD522eNtn54n1Yrls+bkWnFwdi/nbiRtMH+0RbaPrlwRWP4pHR87DTNK1iXzu2WBQ2oyJ1/aMOL/FjJtD0CcRdAdBM+naoKDog/XMM9kPpxvDAdoXU51kDpwAWzJGxwFDP9B7KjRD6aowAWk5IKwLGzjFk5MumR4AsARtvDW03KQcbQx9DNSmb55bVfLqgCr5nFo5VWP0KjdI1IRNmekEIREXADT+izJUHSzVfmUb+hqSg1QFQlIUncIVmVjfka9xlFfZVAFfcEG7+X1GcAM2CQErEZgzPVe5puuQX/e/ChhVleGTQQGxRzfdCObrsUVw/2mL5WBa0fDw9eiCeNnRAYRGqpBiyQJkeIL8NngIwceGblCcQdwUg1QhqGwpRBEGhFAjlQA053FnCsum8oVDT++ZOpny1JxahIp5ahLvVnG2cdzcLfQMdGv2T99n12rNeuHFsGRZ/VIXhFge6k4f2AdffiIHkjJhLysgU7aXgOSEWgGD1ytUR7NsC7B9SBfR2VgIUJ0YIwb+B+kQKzmhyAHwUVzz5Azwl/B5UZYzSBs0TUx/K9IF5KsHaAvO9olTRM/oOiu8AADHKV5wAzfn5jgk0HwJxVwDCBfKhNJ9fCQZkh5ycBcO9b/dO2GeNmALQYwSQFWG6dcdANeSwukcARQfMm262GoRtFycmmED9TPlG4d7whitz2WPG3oXlFcFSet5wF7a8UoaTw4wrCchPoAxjxs82rS5QhGjoSoAQC4Du5BasB06WDkOWhlyeXPMyll9fhOvJb2GfcbeFg9kAACAASURBVH7eXNol+hSGpnxpVgAAw24VwnrwIFXQG60vot0A9X1whFUQisWjFx7cOFup/IHN2PCAZZR//A28z1MA5o/Dd82GQNwVgP1HgJxsIE2tSXOZIydAWud/5pzi7U+BgTLSDSsFANCzoydiOLde3ykAw6Y/sBX8lt/JChljVwBkJRgyXUIlby1sAZS6t8utXufU1XCOd8crsH/sS3jmhvUmBQC9h2DMlpex+fitwaWHx8vw/pa7MPHZUH4ms35osjKyvlCe7NvnYeSTNKqnZZOKoB38orMSoI/IyZryrHmJYk8hrGn0PhA/tlNgBN/wZS+242H3TC/fohyQ5eFCsbNrFz9jAnEmEHcF4M1NMs6el8Suf2KuXw3yc+CoLAIBUTyAjz6X4fNLyG2t+ARAAgIB4GiVjI8/bzyB1YusI3b7MkPyqQLdPrfz01mzYqi0OFfDKbEkIObYDV7zkcq2CPdwUwC2RdFI9gEyfa+3JIdOA9guE1TfcloyZyr0AjiyBU36WswEsqq8CfzsBxBKwB2GFmmsyVKAMmyxrmYwZKXL6wv24SnyBYDF9B/pvV9aCrK7pe9go1iJrGR5cEqzK4ufMYEmRiDuCkDFYaDicHiBuOcgsOdg+DxNjCs3t6kREGZmm3l1m37YTQHU2wJgU6726LJORdiyXpsGCJr/tXTjOfEWgDKQ451wpNtonLagVgaVgPkfaY6OAHTWNMIHvmtZRWDsn+I/cReesfN5sPhhGN+L9tp2GsW4CgARHAijrYjzMYEkJBB3BSAJ+8xNYgIxJxDOAkDmbFOQnwi1X9L/Rlz/5D4cAXAJmf/xKH5hEw2QimmwBUA4DMZiFUAkAal6/FN9Efpd7+QIFgBRnm7eN5euKGxK24OrOyxTAOZX+I4JpBwBVgBS7pNyh5o8AdXRjfqx869PAEPeNDn/GfuXeAuAsTUNuVYsCMale9ZSrncy5UeyAJjm8BXhLlZd2PgcWOvkeybQHAiwAtAcvjL3MTwBdTTsGA/e7m2LD4CWRXdsAzBmvup9biqfRp02y+O0eXGtINPZHFWvf0/go51aBnOa9tR6FiFzjaNhoWTYxDuwvtiYe0ufSFnRogAGiw1vQRBTAMHM5qsoLQDKSzYrPSzt0ws3TQGQM6ezs6H+Dl8wgSZIQLrzVxR1nw8mkPwEHp+4B3kdOyW8oYoPwD0XbHOdhHeYG5DyBFx790A68bW5n8ePw1Xxb9Mz6ewZSF/sMD1zvGnbDoGCLiHJgYKuQK55dy1/n0Igw7IffMib/CDWBNgCEGuiXF7KExBr2FO+l9zBVCPg/rAU8Hrh+vRjaIJcOn4Mrr1mIR/LfrvrU1hGJvx9rwVUxUHukA+5Yz4CV/WCnNOyPiVx3igJsAIQJSjOxgSYABNIZgLS2W/g+nwHpEMHIR0+CBeN1M+egXvbx4C3JpmbrrTNWwP3B6Xi2k5xCPQphHxxSwT69IOcczHkq3oh0Lkr5Lbtkr9vSdpCVgCS9MNws5gAE2ACTgQ0Ye/6sEwIeiH4Kw86ZY/4XAjSXLMgDfQvCnmPhK3cOdSsH5KRHpw5oyghlkRNMdEeSzVklSjXbh3PWh73xndNeeS2lworASkGgeuK2GJgohP+hhWA8Hw4lQkwASaQcALSiWNwfVAGd+k6MUqWGiDs/QOKgfRM0whaCM9oBXoDKPhvviXqtzSlRrdgVOwBqN+7doDSnA7yXXBvpH9BxUDOywf1N1BYJM50z0coAXYCDGXCT5KUQLI4ASYpHm5WKhHwekFz9u5N6+H6oNR2JG3XXRJ6JOxo/lxztkuVOXQ7H4ZIyoHGyKQQDC7haQMVDCsA2i+Ez0lPgBWApP9E3MBGEKBRrvvttXCXrof7nbUR5+0D3Xsh0LcQge49VRP4tY2ovem+KlYwfL4Dri93iqkEzY8gXI9IUfLfMhJkoWjOPgSsAIT7lXBaUhFgBSCpPgc3JgYEdKG/bq0i9MOUKUza/YvEPLf/uuIwOTmJ/AzIcuLe9J6wpIRzgmzOygArAPz/SpMhwApAk/lU3NAIBGgpnmf5YnhWv+440qcRPo1QybGNBX4EoBGSafqAHCbdG9eHdTgk3r5bRsE/fGSEElMjmRWA1PiOzaIXrAA0i8+csp0Uo/3Vr8OzZIHj2nsS+r5RY+C/eZiYy09ZGAnsGDlU0hSL+923TI6DxiaRcyQpAb4xExGIo5Oksc5EXLMCkAjqXGeDCLAC0CBs/FKCCZDHftpL8+BZ+ZrtaJ/Wt/uGjWChn4DvFM0UjLAKTLg/Ja0wrAAk4EfHVTaMACsADePGbyWGAM1D02jfs+K1kAZQZDv/8FHwTbg/pUeYIR1P4gdkGaBvRVMzdsssyVfAd+8U+AeVJHEv6tc06aH5vBdA/ZBx7kQRmPq95NgLIFH953qbBgHySk97coateVmM9sdMgG/4KI59n8Sf071xHTyvL4d79cqQVtI0Td2jM1PCIsAKQMjn5QfJSoAVgGT9MtwuIkDm5LQXnoNn8R9DgKSyGTmksyn0QEzfzH/W1opD37T218826WWErhT6VtwVJsAEmEBCCJDQzywpDBH+vtF3omZNGbwvLE6JEWNC4CawUgogVPvEXFRv2gHfxB8BGZl6a8iRMOumQqS98KzYZElPaEIXrAA0oY/FTWUCTCC5CJC5P3PMMKQ/OcMUrtY/6CYh+El4pLIXeXJ9jfi1hoIF1f5yJqrfLYfvzruDFXlrhAKQOapE7LIYTGgaV6wANI3vxK1kAkwgyQiQw1jGmFtM68ppxOh96TV4X1rGgj/JvlcsmiMUgV8/g5rla0H+HNpBWypnjrkFaQvmao+axJkVgCbxmbiRTIAJJAsBmutPf3Sq+EfX4sjIRN3/TEf1mrKU8hJPFubJ1o5An2tRs3yNmB6gFR3akfa7WcIiZLeKQMuTTGdWAJLpa3BbmAATSGoCtFQsY/wok1MYbaVbs2Ql6u6fyp79Sf31Yt844eOxttRsDfi0XCgBYtvj2FcZ0xJZAYgpTi6MCTCBVCWgzPffYtqZjxzDalauA40I+WieBGhagKwBdQ/9TAdAWxSTokjLCZP5YAUgmb8Ot40JMIGkIECx+2m+XzftZmTCO3uBcAxDRkZStJEbkVgCpAB4l6yENiVA00MZD91tshYltoWhtbMCEMqEnzABJsAEdAI08s+4907dy5/+wHtf+HOz2TBGB8EXEQnQpk3e5WuD+zh4a4SvSLJaAlgBiPhJOQMTYALNlYAYxd03xiz8X1nJjn7N9QcRRb9p2adYJdC9l547/X9+ZJo60hMSfMEKQII/AFfPBJhAkhLwepFx71iz2f+VlaBQsHwwgXAEyC/AS7+Vzl1FNqFIPjgR5ESaTAcrAMn0NbgtTIAJJA2BtJfmmtb4e2f/kYV/0nyd5G8ITRXVvrA46BNQeRDpvw46CiZDD1gBSIavwG1gAkwgqQiIGPAvzdPbRFHgKPY7H0ygPgRoOqD2d8G9ISh8cDL5A3jq0xnOywRSkUB2Vhr+8lYA730i4dz5VOwh96lFNjC4bwC3DwlEBSP9yemAt0bkJZO/iAMf1ZvBTH9f78KGbS7+TQWRpNRVtL8p2j6Ywgd7Xvuz6D/tFEnOgsmweoQtACn1k+TONIQACf83N7Hwbwi7pvIOKXZrylwgoRzpoCV/NFLTjtqn6h/eleqh+lih1Cim3rk+v6m6h36qTwVQ2GBNGUg0lcj/NyS6hVw/E4gzARr589E8CNCIPNLhWb5Yz+IfPqpB8/7R1KNXwhdNmkA035qcAkkJ0A7PyuXaZULPCZ8CoD+9cgIQlIyQMCoPwClgyrJ6tqCPhGeKgSwA1ZUyHlkVvgNh6zKUtflFGa+GL4pT40CAR2lxgJqkRUb81l4v3G8HR/91E+5vUE8i1tOgUvmlZCQQ7bf2j74T+N1vxdQShQmm+BKJ3ikyIQpAVgZwVT7Qv5uEti2B/ceA8t0yKo4C3rrk+sRTJkvoFibQV1aehHkPhLZZVwxKVEWDsrQG5j0QHG0e/UJGxaWKIkHJAx+QMFAtSkmTMLC1uezqU0o5pHw4Hl5g5UIZyR2E0rH1nMAEEkaATP/aBj+0hItD/CbsU6RcxbQqgBxJ3atXir65X1+OwP/8KqH9vKAKwKWtgWuuBK7uJOGSHCAzHXC5IK6vypdw5CTw6V4ZO/cDJ88mlEtI5bpAD0kxPzAqDPrIH8DmUqAvWQ0Mwlmkk4D3ArvPA91aWy0KMl7VLATae+o9vUNCvv1YRUkgheG3VUHLhLlVfMcEmEA0BFxf7tSz+YeN1K/5ggnEgoCvJKgAuD7fEYsiG1VG3BUAtwv4Tkfgmi4SOl0K5GQpgp+ea0e6B6B/2RlAhzYSru8O7DmsKANkHfBH57irFWc+l0iY1938yHRnGZVraUKg2g2h1fJ2l8qY9ykA671WAIB1q2T0nCwB5TJepbw9FGHd0zD9sNsLkT7vUwm/egAIbixpKIgvmQATuCAEXJUH9Ho44I+Ogi9iRCDQN7hplGT4rcWo+HoXE3cFYMLNEjq2BS7OBjLSACloAQ9prMetKAgXZQBtLga6dZSw6wDwxpZ6ztGHlKyMso1mcW10bh3ZG0fwVMy8hcG671JH29WVgDZOKKmSsbJSwqhiCfN6AFMM+Uk5ENMHlFYcbFQ38j2gozXQjc7GdHVKwVEBUd4EMoBRhumE9t0lBFcta5n4zASYQL0IGCK1ybnt6vUqZ2YCkQiQM6B2SMcTHxUw7goAmfK7dIgs/DUodKZpATE9IAFnzgcFsDFPY6/bZyslfBPNVIPBiqA56pGiMIqEumqKnwKAntEcf4jw1sz3UTTaqoA4vsJTAI5oOIEJNJSA61DQAmD8Y93Q8vg9JmAikJEBue2loO2CNV8TU/oFvom7AlC6U8a/K4ErL5PQ/XLgskuANLdzL6u9wMETwBcHZez7Gjh+2jlvw1MkFFic65zK0iwFRqFOlgDdMZBG4mMlrFsmK9YCoSxImFIlY946GVPWKYoBjdZHOVVifE6C/UXFgU+zOIhkdcQ/sNKYma+bA4HhkySM6wysny5jgbXDRRIWlgArZslYbU3T7qPJo+WFhOemA+vDlHf/NAndDsr46QoJz80CNIOWXoR6cX6vjMmLrE+T+54ctSQcFI2UvN6ErFC6kISmT5fQahd9y/C1Uj6skzGrTM03WsKyfGDsnNABGv1eRyP47en3MiTXpvzjlvcNZWq/eZu3UPlJ5PbavZcsz0j4J8sRdwXgsjZAnQ/4aLeMLw8BeW3JIiChoD3QIlOZEpBlxelv71HgqyOycAak1QDkL0BTAae/jTGuEqC9WiSZzn8FGb+1m+9X5/GNSfoIXSwfhJi3b09+BGMlZTmhKvTtWmxUIkLSDVYGLe3VZQ5OgE5/cbUX+Zw6BEZLGNcBWPoJMG66hEpVMOt/kLWe0h/PftoNQML3gxzzH95xsySMoyzqH95wf2T1vMEiRZlmgS5j/V4JQ04rf5CNf/jpj367LwwvN5FLuWM+8IXinCXmaDt3aSItj2MziyQUAFgBCQtnAarxVFS4bJZhTlf9Xa1eJOOa6RKmFwUVhhChrQp7KkT/3dBgLxegMun3O3Y6pSpK5m475TeOXY5X0cbNgOS8/HhVE3W5cVcArrlSQqsWwLFTwN6jsnDu2/+1DFoRcEU7CS2ygKozwIHjMk58o5j/yWeg06UScrKBfapSEHWPosg4hX7NAI6eAkh4R1ICRGbNG195FZvV2AG//UJ1MiQlYLJ04ZbfsQ+A+iVS+EQj937KyJ9G93n5EsZNk7DaZtSFFTLGilGc8gfz9BfAgjLVYmC0ANB1f4UZ/aEOtRqEsQDQH+1ZKu9cCct6AEtnydg9Tfljv1VNIuE/4KyMydposQl9IjLPagftB8AHMJycqA/LWF0G8U8IZQcrESmmPTNVasMkPNdexm4dYhTCPMQqAOQdB4IhdPTCmuQFRQHUjkDHy7XLhJ3jrgB8tk9Gl8sk5OcCHXMlHDsNHDwu4+BxoLJKBumPAVkZ7XfPB/JzJbRuAVTXKvEByCIQ00NzzPNCEeKqRz4pAWS2tzv0Ub+aSCsA9IA962SszFHX+qtC+fsOwYGEo164FQl2lVuffSrjEVpRoB7aNEFY64KWmc9NhwAJ6mHAB4aRz4I5MtpNl/DcaMBpZmw6jZo+kbG1u4Rlw8zdNY7qaZS1cw2N0OzN+Ma8VIqYflCVDH0KAKQQqCPAYRJ6iuokDKEzKQizoNZhbkcy3wUKrtSb5177Onx3TtTvm+eFhCGdgVOfGHo/GmhNCoHhkXY5a5b6N1T9/e4mpXSallqfs/l3qf/OrApCfYpMgryuTe/prWgWFoA9lcDRkzLatVKE++W5SgCgrh2AQyeAczUyLmkhiakBChB0+hzwaYWMyhPA8W+Ac9U6r8ZfGMzsm7VAOauCa+m7FUsgHwT9UPOTwN9dGJz3p3xGr349vxoZ8C0owYE0h0EtnYW0RoLPkQhMLwFOHQeGzFIFqvGFfMlWASDBXHBYxmRhCTD8gbaxAEy2WBFs/QtEncofYmP14jpfwsKzZjPt6b1AQY5ixjUqLiHvJvEDCv2LJ2eIFro/KBX7t6e6M2BeP/P0EXVe898YPknx8ahUTfHB2UeDNcjwPRWlEri/P1CxRrFAhY2lSFNcnakACcvUcpQpABGk1ez3Ypg2MFTZpC49K17T2+u/JfFxJuJuARjUS0JAlnG4Ctj6leIQSNYAGun3uIIcAiXU1CrC/jMS/CcBnw/IbQn060KrAICyXTqzRl0MVE3/phE8AJprbzNZQtVC5SyW5lFNhvn8KYVK1fr6f0tLNGdB8doq+yh80VoAwioKlqkIrRnWsq3Kh5aPz02DAI2kSKDTaF530FLN9yS8hQ+AqSsSuuUC2erIO5IPgOlVOCgahky6GXe06ldAI7FFyvyt5qBYOUlCAZn+55DSoPxBD5n7NZSZjJck7P0DikHCnw76g113/9RkbGrM2uT4jYokjO4MVB6nqmT8VMzJA9OnSdg6x6BgWlpCc/rC6W+YhPvL7K2q+iv61JX+RL0IKp5Bi5M1T9O6p22ANQdAmmoSOwImuAtxVwBoHp/m+ntcTvP8wIFjihKw57CMDm0UR8Cqs4oCQKsDaJUA5W9/CeD3AzsPRPgB1QOgPuq3eUdb70/L+eJ1hBXs6jJCfXWBXSNKJDyTI+ORF4OJPAUQZJHyV+3NDljm/gb/QCtOVQBNGYhVA0YLgPkl/S4qCwCVkw+sPw6xCsA430uWCuUwjAxp7jaCd7negCS68I8YE1QAlrwE3+g7kepWAFv87cn0L2N3vqTEK6FM5BCYC/TUHEoNLwpFArQCAKisoZUkwJDpEk5rS62LgNY1gONCptESFrYKrh4wFJ0Sl2mzNQcawD98ZFJsBxx3BeCtcllEAqRlgGT+pzM531UclVFZBez3Qjj7UbTAgksltM4BznspnaIByqCVAc35uKuHulcA+Rd0p1DBzZlG8+778FbA+bMOCrFByOflABUfmedQiZxxXt8q8G2nGgy4hQWgTHHsE5YJAGSl0FcjlBm8uWnpXxM21/qGj0La/GdBToA0Ykt74TnU/voZA41mcrlCFs539xvn8NXfgIkAfesewPoVwP2TgBWLSPBTDhk/nQVhyWpF3v7dgexMKI6sBv9K0yoAek397Rj/1J0mOaAt3TJV3jRuPIv/CNoASBwZmai7L55DzeiZxF0B+OZb4MMvgW17ZXRuT2GBFYfAG3pKoDQS9q0uAjLSgVNnlfC/XxwkB0Fl+WD0XYlFTgkXqxv/nKmyLy/c/L/9G8GnVjN9MMX+SnM+1C0Hwvxvv/lQSNkN2eXQvhn8NMEEjCPtnWscGlMmo6JEwpDRklhKtbssuASLRm2RYgVYFYJgLUFTbPCZ+arnMKPDodkCYM7ZRO4yMlD7y1nIeEhxAKS9232jxvDGQOqSvXE5hvX7JKwNK1WwiBRUs98KWaLoIAfV8zWqFYtM/+rP4ZoOQAWttRYCXsJzojygmxgwK1Nbu2lFCZkWmuBBiiQpkdpR9+BPk8aiFHcFQOt0bR0F9wG+PCgL8z55/FM8AFoiSMsAd1fK+PchJR6AwxhHKyrGZyUGv1G5pPDAIs6/TU3R+ADYvCYe6YLcIYMm8LVkbVpCu4dlBYD+nC9SmoDuWa3+AV7YXcZk3ds62PVZuyD+GNP8P83HLxPOVcF0owVAiwWgpUZlAdAyW86a45c+kmviFgDqHu3aJnZue0fZGjjjwbtRs3wNksFz24L/gt7S0lHQb4tWkXwCFPRTVnqEBKiytIqsRrRKZOkuYJy+/F1RLi/dK2O8WDIqo4ICDqnOg5iuWJVoVUneNElMaWlKg6X45L31epHx4EQ96h/tMFk38UdJ094LpgBoPSbhTrv+0b8Pv5TFJkBkBYjbNsAGRz6tDeazjN8a5tTNacG7EGEcTBJXtPGPMWCQMTnSu1reaPNp+fnc/AiQef+UwXxqInAUOA8gu7OE0XogFWXeli0AJlJR3ZAVIPODMvHHm6YC6A95zfK1STF3G1UH4pRJix9BlqnsGmBrhHgPmgWLrEyryetfa5fqE/CawZlUUyYpi/E9odDOkppcFMCMn9wfNP0DqKOppIww+8trbC7Q+YIrAMZ+fVsDxDrIn7F8vmYCTZnAgoM0orcs0aoBltJcqyG8Ko346Q+rZopdIJZsGUzxKgSTBQDAqRqgtRq0Jc9uuaEBnkj3AbW0cyfFBZgTTDT+0dafqvO4+n0TvKDRfu38PyPjvrGAt0b8Ic946G54X/hzUv0RjxatJlBD8lt/Y2oGbSlgSH71gbBM0XemUbtd6GiaeqJYFKSMaiGhVwCVs5Rof1TM+SpgNDmQGhVW9bdMToVKcCuAphYo7gD14TnyLWgCzqXpT86AW7UgUV9rfzkzKTz/jd9Temg+heHhgwkkP4Gp39uDvI6dYt7Qyb9NqB4c8/5wgeEJLPyVL3wGS6rntcVI//XP9Ke0TLD2hT+D9g1wOvg35UQmNZ+bflNeL9J/8zOxhFTrre/Ou5PSkdSlNZDPTIAJMAEmEEqAogHWPRRUAChGQMb4USJIUGhuftKcCdAOf2QlMgX8GT5KjP6TkQsrAMn4VbhNTIAJJBUBUgBqf/2s3iZa0pU58ia4Pv1Yf8YXzZuAa+8eoRi6N76rg/BN/BG8s/+YtFNGrADon4ovmAATYALOBMgS4H1hMZChOE6QY2DmmFuQ9rvfOr/EKc2CAE0TZY4qMTn80Zw//UvmgxWAZP463DYmwASSigAtDaxZshLGXQPTFsxB5phhoBEgH82LQKvqY/jFuh8qPiLeGtF58g3xzl4AGv0n+8EKQLJ/IW4fE2ACSUUg0Oda1KzdBP+gm/R2uT4tFyNAsgbQPDAfqU0gze/FiB3PY/Y/BqBP5Tt6ZwN9ClHz+jol1K/+NHkvWAFI3m/DLWMCTCBJCYhR3kvLUPvEXH1KgJYKCmvALTfg5t0vJ2nLuVmNJVB4YDVmrxqAO7c+juzaoLJHfiJNLVgUKwCN/TXw+02eQIvsJt8F7kCUBGL9rWmjoJqV68QOgloTyDdg8gc/wVNvfhckLPhIDQI9vt6EGW/fhp+8Px653x7QO3WwzdUiQJRxpYiemOQXrAAk+Qfi5sWfwOC+gfhXwjUkBYF4fOtA5y7wLl4pHASNoYKvOPWZEBZzV/TFd796NSn6z42oPwFN8M/4123ocXSTXsDprEuxcMBsvDdrfZPdJ4IDAemfky+SnUC8AgFRv/++3oUN21w4R7F0+Ug5AjTyJ+F/+5A4K3teL9IW/xGel+aF+AIcv+hy/L3PIyjrdDvq3MkTDjblPnaMOtSn8l3ctmuOSehT0XXuTKy56sdY138qCq/Lif9vKkb9sSuGFQA7KvwsKQnEUwFIyg5zo5osAXIE9CxeIP5ZnQLJf8A/fBR8E+4HWQ/4SB4CtHOfZ/kSEciHpnJMR0YmRFCo+6YkzW5+pvY14IYVgAZA41cSQ4AVgMRw51obTkBXBF5bghCBAoC8xn1jJsD/vVvChhZueAv4zYgEvF4Rs9/z+nIYg/jo76Wg4Nf6xgqARoLPSU+AFYCk/0TcQCcCXi88K1+DZ8kCuPb+2zYX7THgv2Uk/INKmv22w7aAYviQFDP322vhXrcW7o3rxWZP1uIp1gM5efom3JcyI35rH1kBsBLh+6QlwApA0n4ablg9CFD4YM/yxfCsft1W8FBRge69QEGHSBmguAN8NJ4ABWpyfVgK97tv2Y/01SqIu++WUU1mLX9jyLAC0Bh6/O4FJcAKwAXFzZXFmwBZBVavhHvVctAGQ45HRqbYRjbQfyD8g0uEcuCYlxN0ArrA/6gMrg/KbKdgtMxC4Ro2Uoz45bbttMcpf2YFIOU/cep0kBWA1PmW3BMzAenEMbg3rFNM0oY95M25lDtyIgz0LUSgTz8EriuCv09h0m42Y9f+eD1zf1gK17aP4dr+MVzbPgkr8KkNYsql5Pvw3zys2U65SHf+KiDH64NwuUwglgQen7gHeR07xbJILosJJB0BfX66dH3EkavWeBrBCqWgdz/IHfMRyLs8ZYUaKUvkRyEdOgjX9k/g2lZu2oRHY2I905x+YEAR/MVD2OlShcMKgPVXwvdJS4AVgKT9NNywOBKojynb2gwKTBToeDnkgq6Q2+YiUNAVyM1FoDPdJ6+pm0bz8HqV7ZZra0F7LUjffBOVoNcZ0NTJoCHw9y9CYEAxT53oYIIXrAAEWfBVkhNgBSDJPxA374IQcH2xA65dO5TR7+c7hHBsaMVkOZBbtoRM55yLg8WkZyDQN9T5sL6WBXJ4lNRd8oKFA9LnOyCdPaM/oj7h7Bm4t33s6BipZ3a4IKWG2hz4Tk91iiS0/Q6vNtvHnmbbc+44E2ACTKAJEhDm/u69gNF36q2nETMJVVfFWVxASAAAANlJREFUV5Aq/g3XoQOgoDaRDiF4KVM4J8RIhVzgdOED0aMXkHOxGNWTH0TgKlJgWl7gljT96lgBaPrfkHvABJhAMyfgv64YoH+Wg5QAV+UBSHv3QMydqyNtsiBYIxRaXk3oLQVIkjMzEOhfBKjWCDkjk5dExvirsAIQY6BcHBNgAkwgWQiQD4A/L99WOaA2aiZ68p5HrTfYbHXePfhAuYrWsiBy0xy8zTQCtUnukG8qmqwauPhiXtFgohL/G1YA4s+Ya2ACTIAJJCUBLciQsCAkZQu5UfEk8P8BpuX26EdwQmAAAAAASUVORK5CYII=;" vertex="1" parent="1">
          <mxGeometry x="190" y="23.63" width="369.05" height="117.5" as="geometry" />
        </mxCell>
        <mxCell id="BWZjfHxMxovDK7LopNrh-16" value="" style="shape=image;verticalLabelPosition=bottom;labelBackgroundColor=#ffffff;verticalAlign=top;aspect=fixed;imageAspect=0;image=data:image/png,iVBORw0KGgoAAAANSUhEUgAAADMAAAA3CAYAAAChMHI8AAARlElEQVRoBY1aW4xd11n+1r6cc+bM2M6MZ+zYSY2TNJeiVpRaJZKlliIhiKq2NFThhaqqaKNIBCXqC0pBlBcEEg9VlbZBQHiIqAQvCCG1onEbAX3oRRRSLm1xWhpfEtvj8cx45sycM+ecvdeqvu9fa589Y4ewrT1r7XX51//9t/Wvdey+/tJXg3MOt3vYnt4MDiF4hBA01LlMJb/5ZlkWx+ZNe6JJGp7znAdCBpcFlexPa5MG66STnrSWfRv9NCfNS2O99yjSBzvbk28dXKs/jSH+GQAHEuOTZTMBkEZ6fVXBIYfLbB3S4XtwnUSftNp1YP/4g3PJS5EW4+SDhNsEfT0Dw3EUIIWdZbnm5XneWpzaM6YJUgtHzaV12NZmtr026weZJRibSz5VJdwWz2GmmdR9sCTR16+u4sqV6xiPJ0bTkVUnKTtQ/TAzkimpB47ME1BkIlrnPvIGxphkB03XGG241fi5uS7uPf0WLB9d3DefH0kgMjPva6GjNNrSuXJtDX/46m/A0dS5Hkv+i99WOpw5Zf0usNfG3b/sKTMtrLnSk/ERXJJxwKXNDBO6kdqCyn+7zH6rq51904Dwn0YkuIC/PPsNdMrSCKa/NHsi49sG8r3/Oo/PXHjMiJI/8pUWjN9s+/lTZmoRK+g1bz1GtFSdTQo0GZfBykiIfZnDqaNBc9J8au+tKxFcBJ00a+ubID7xrffiJxde26cEmnmWNJLK//jvV/Ds8AkzDhJ0Rk7GEHlJwpjJ2KRp7QmICSBCkp5YjwqLFbVImIn+oZ5qDak2CPKS5n/m8mO4ePmKAg6DDjnIGAVSOLy6egOfGz1uACIIEWO9JSkut9ADPBxq0F8M1v3HksmwdOr3LPVmVtKPqK2oYc6hRqmVOhhN0jYTi4KMQm2AiZ+AT198tImidV0jo+Ok95lLj0Z3TcSS7CnImR2zft9yZEgyMUBiRgxF82O9eYOBJvA4hn2cQ2BeDBuw+1ZM0gmwtJGEGflIwP7gmyucjRBqFAQi7cu2WSMJc3SpVZSs2cmbDQQX51AWdP3D0lRsS9bA0G0Go79iLtYIaOaL3FRJzgQmLoywFlA7GyPgBIT8/Qj3oqquiqrMjP7y2pXVGXGiJxdRvaZyg0mG3n7SoQ4maUkeASuHgCpqgdKufZDUKw+kV+1RG8k8OeeeZcnWtAigRtAajalFPnxjHQRtEuOYwWAoMEWKZqvX1xGYZligN1tI9agtzQBBWBjOJEvTIpkifYJLfipFUiaUAJVGacdSjLbq0gyZZnQ1Be+LppobtZXmJmGvb97EwsIciqIwQ5hOpsCcqZqsan2FbLaRClscHlqhY1vd/gKnFoGqtlGUB8e1AbXBkJHxaIK94R5c7tA73IcrMpw6Cry6YauY4ZuNkhy1YGCi39oSjXamU2YnDkU7DZFpiRn9MS013xFQRqeVCEXAydwcpgc0IjAURnDYuTnAlNlDSxOJud3RxDThgJ1BQO/YkoTF/geOAT9cM5OXvmRuBi7Ropx9bSlTEwAYnikBY5nZgKlcUpZeiIq+QrPhOGov4FDHYeqDHJ1JsTKBFrCt1XUzM9ITHFKxh99ck5qgmS3OA2tr6xrQXVlqQCoAcJLAkHiklb4jvaLf72snLTtlY9PJpGZL2vIPHLVQKrpGE/PdgKl3kLsRDDPnEDAaDDEdjs3cIornnlpuXDKur4KR7XuXJvj8VzebPWd3bR3dY0u4fxk4T/OLdmsaPaCdBGYyHqtaVRXQMeeLarEhKYMNAJN46kPZAksPTLyD88lf6CsBO6ta3bQVHP7iqWXRqs0ZkGfQS+DC6QLedbqD5584jtEk4CNftMg6XNtA59iiAtNtQURnJB1f1bPcjPsNJ1hIjo7GND863+lF7vZBO34VgsLwUp9gAugNUwELmFRe/lMhYBoC/vypZUxrYDgJ2B0HlaNpwLgKCtnUSlJX7gL6HeDLTx+3jADAaG0DXNv4iCambSPySCTxUQBgvdvpSAIEy3SD1FSX4ZhdcxznpvkT0pafmGaGq5viy86awAu/c1zMT6q419S2w3N+kfMN6OTAXAmUeTrIUfPAV54+jl959prYHF/fQJi7w/QoP4n+I4YCmMowpBfTvTG883ZW6RMI50SHkKoCFjuWgxkKc/65PCh931vd1IKcpnwPQOWAF564E9uTgPEUmNQM3ZCGGEDo7Hw4vswhbSx0gfkO0MkdMloDgL99/Bgee35VILQHclLb6VmnIrpdMCoXg+2b8Kgx3BkgLMVVmPgGUy1H9wXGkihphRl8Dgyub4o42yhNlo+8o4/ffPgIdmRKwLgiiCAgBJTAcCXOyWtgT2/ApHY40gO49bFvcS6zPc0Bx4ebuLZwR2MWCggmE2xtb2I4OoSCCRo1IamKUxsRQ4EmM42QCMQwBwXsXt9sQu673tLBH31oWRrYqwJ2ph57FTCug0qC0OtnYKKQUWSWGtXKwM0P+jS7zAnUi0+ewC8/d0V8tLUTcajg0Z1PwZSEItWuYdt3ZNKQHe+a4zeTXUB54yam0UxefPIudQ2nAcMqYFRBJTWyV1Pa0bwIyNPEeBg0c8kdrzgCKuZjNJkpwEsfbsrzZUCec1fnEcJWPz7nsDqO1hP55lcv62Bhro9iOLQkbTKZCBSnyW84mPbd0lYCJAEAOPfbBmREbUQgrBMYTWdSB4xpWjHZZPJJIMISgJxmRqI68gJFIHCHCQMDzZxy5g4fGffbOwi9vrHR4muwPcD6+jqKIqpIBzRqJgGHRZi2iZFKubWLOmYK3G8o/WEF7FYAgQhMBKGwHYHwpKFkMtKnWZuWqB3uYWaCDP9MZFOQ4JrigZXJBOV8XyHfEJkger0S8/0eiumUBgNw07RddgZ5obR9RZ4dA1xFDYoGpU7/CNidWikwtZka+7j3MNUhEEqZTNpkpj9Oe5pJ3mSoE6mOWhzP7cAS1gYMT7idgA1j2WjpuGzXXbo3UyslpgR6ppp9JkY+2BV33Y+8YyH6SMCQAPTGyOS5YUISTGcc+YmyB5OmZXYKmxajSZefMiueaSzno4lalh7ncZwl+hEMwBsm7jVFGa9syrJgUmX8Ajic2wbXzBhPkd0cylG54IWtCqMaehm5WKfJ8aWfUCMEQmZM4+aSlAlNTCkRQ3DGi0SWvFi0/YwZxpgZxV7Ajb0A32Kep92FAthhaiThmhbpJjqcJYZT6OOYfVrZmwLbQzMLAN9+/GewPQ24OQ4YeXsFxMOYiKdM2j2lqjWJwm6YZGIEUGRB0YobJ2VJ0MMauDEO2BgHbO55nMoKE0ZkMgmGNPUEh7qqUNfT/T4j32C8ZpiMWlLbYFfqZ/1fHz9t4Zb+EOgX1AB9K4ZYOrDsPphACICruoA8cxbBsqB9pHTc8YOAkNarux4furMrTXFzvbDp8T/X/YwXWqL4crqKpeZJt/a1fL65OBfSCKBkrI/AOZiqpe++/Ml7xExXJmjBwRi38aTBcTRDmVNDwy7UswiCO3xHQIBu5qTd9y51cXbZzv+85dwYBVwbeFwsJ/ApyurKikQDOpndOfCr1+lirtNF0el0tGSnKCUBDSUnfMjUtZuWScemudxhUBkQGhDVzpd+QGa5bq7Nl0TMGLKc/U55GIFQ8xQId3nS+KWlLvKCmyoDCbAz9riyFfD97QpH7ohplcjx1GnbB4VmQYXrZZabwdeSpmdakwE9MRg5T+J1wF+9/4QayTRNi9qi8/Jswgw4Z9bKBQiMgOJKcnBujhrnQK1zHCVbuIBLoxp5PotivEtY2wm4etNjq1/hZLdUAIhBtAFDZnj5uYd4TcU7gJQBjHlIy2Kqn2ZSMzR4F/D25Z7AyEzFHHOnIGkz7Eu/XiTsYk8DLXJRK9QWNSFQ/ObFhg/42blSfkD757lndeDx2kbA18IQ757v4HCH+1FMgbQ3xY1d9kzlB1TTCtwvmzsAxumy7fQNIHpdwAf/4SLO/fpppSkyE2pREcj2J4IuuNsrgkXNsovaI3hneVZKhRg0tqoaP9fr6ijBzffqtscrqwH/iAEeOlRipedwpDQw0WL3aYZttAJfTVFNxrN9pihiCGz8xZzeLXXhtka4MmIWCExoPs6hl9sxmmzT4ck0d/wGjIIAL7MNCAEVOoIDe4H7kcemr9W/Ofa4uuVxeQP4craN070CJ3s5FjuZDm8Kx4yQJw7rWJ6uU8hPxhyOEZQ/A+a5/c5R5PFCg2BaWgnzJbA9UtuXzm/iow/yBx+LJn3wIGUaKXlHQJUr/06aMXPiGGqGWuHOziMzAW17r+PCpYHH6xvAi90tPNAtcXe3wNEyA4PNV17dlh9yk6UaeD9G05JLytRodny9/QzIpWnXihTSTEoZYkldOuCPX17D2RN93HvYImAvc+jmlnaM470A9xuLYVFjiEDIC8xPOHZn4lFXwA+uefx4t8L6yh7OFB2slDkOZxn6GfD892/gny/tKLX2C3asJ3HJmovEt665adYoaAZE/YFf+zA+XF5E4K8CTPJ4waGU3cOfnn0PXr6MlxnN8hzv/MX3ESM6mUMnaoT0Uy7FPgqJpdq5udL8HHBjN2Dpah/fvnuA5cUcD+UlDuUZuvQtOPzWuQuWT3EwI9aRjojw9se0Y87PUBzqqd6COQ3BFGWJM2fOJPt40/Jr587hbX//QxM3RaWX3Nu+IzUYHzNaRMTHEOviCteZWdJ0Yg7Fki+FQPukAE4eiv1R60k6vPPWjWoN7ysU1WTP6MefNngU+N/Xt/CpL34DO3T6A89Ln30UTE6luRi2JfpYpxnfFgjpsC89xqf2K2uPdhjv1iiU+i6CiAMJkGsIOH3E2s1dagSCsfOMmVZa5767juCzT74Hn/rCv2BnZOeX1MdSZw1K7PSCaST6lLSS6klTbQCaHCVPqSrzjZrZVyejsldphpcrdlqzIJCAaIxA8a7Zo6grMms+0WZY6zI7iBpLfQTCR5fVbfOK+Vsa9/8pyQdJmIlG1GyQBmaaoHEpmpn9RWlwBc4J6BQZHH85yyUeRjZjkkN+/Nomnn72pVu1oihIB+QbL5ZJL71cTPVYvgEiY8E6DZA2JWNSDs/5HBWBxp1fGqIwm/OJJIGVo4dkrnY7QzJkLj7P/t13MRiaL6U2lREM6/SZxukbEPtGv+EHAaSHDmw+QyYSqCgg0mUQkKDT2TSpkxRMLP2uJf+FD7xKsMsFlvSRfz9vvxGa4QKf/uhZjfmTL30zaiXMzI/0ZOJ2RTvTr6a86Z8ETPj0Jzq32d9+bSn8M8GNPhUCHrz2I61BaymY1/CRpAEMhpMZowB+72Nn8cjD95rTx/8HY+OTRCP7pC9mRM7+HPxudbWrzTACkHbMfEyY0ellWtZuAdr2r2cG34o/g9hvRDKX5DMnji7gzqW+fopmVHvk4fsabfzqL9yjOhlpm9k+EOSs4a7Ncqw3fS0hHDx2JBoaOxsnugSs/oA//c4XtPPXvhI/mV3ERYcmH87h9z/+HmlnoVfqm23p1S9s2qjMx2wpMzFjNy5+Gxy3NCVg7VKMkpHbgZgB+dx3nsOxO/qWkSOozHjXrH0jRjPepr/7bXfjz373gzi5vMBfcPVyo+SpNN3mmGaiFhIDt3D7fzQIQBv4AbPl1ES30Qbw4NXz+OsfvIDFw3Mibv83gUoIcH/z+WcCwSze/z5pg0wqN9OPnva/N5Sv6TKPfdY2nYxx/Sff3cet7QXWNKuL62ZcirhsmI2xOvngk8o0qSxyLC/Oo1sWjYUcnE+XUkwj0Y1X/klzWW+/iaDaQtBVKn+z5MRTd/IHIHvYn56D8/ndZrA9tj2nPSa1pzLNadNObRqj81IcnQbxk/XA8NdiUDKL31GAdqaIkmwN1TR+22sVHqLSs4+J1HhAU6k5jX2jMu2fzM4bzfCDDyfxTYMOEk1jKEWOa5dp7JuVac7BcUkzifF2P80/rcf2VE988rvQ6YNipyZsVKORRNwWtx902gu1+22y/U3t+9vaX7f6xe3ockaixZ8qlWgkE0ixI2YljLI/BeYWS6NmgbwkAAAAAElFTkSuQmCC;" vertex="1" parent="1">
          <mxGeometry x="624.1800000000001" y="136.13" width="27.82" height="30" as="geometry" />
        </mxCell>
        <mxCell id="BWZjfHxMxovDK7LopNrh-17" value="&lt;font style=&quot;font-size: 14px;&quot;&gt;青牛快传.exe&lt;/font&gt;" style="text;html=1;align=center;verticalAlign=middle;resizable=0;points=[];autosize=1;fontStyle=1;fontSize=14;" vertex="1" parent="1">
          <mxGeometry x="647" y="141.13" width="100" height="20" as="geometry" />
        </mxCell>
        <mxCell id="BWZjfHxMxovDK7LopNrh-18" value="" style="shape=image;verticalLabelPosition=bottom;labelBackgroundColor=#ffffff;verticalAlign=top;aspect=fixed;imageAspect=0;image=data:image/png,iVBORw0KGgoAAAANSUhEUgAAAQAAAAEACAYAAABccqhmAAAVMklEQVR4Xu2dCexVxRXGP1xoG20hYMQSQIhGhRClSEFFKqgouKCCwQ3BQCQWWxdSa9EalhC3puLaBgWXFq2GRuuKlSpLoWK1pGiIYKLQIGm0daExpE1Bm/PvX8Py7rv3vplzZ87cb5J/AnkzZ85838zvzXvv3rkdwEIFqEBtFehQ25Fz4FSACoAA4CSgAjVWgACosfkcOhUgADgHqECNFSAAamw+h04FCADOASpQYwUIgBqbz6FTAQKAc4AK1FgBAqDG5nPoVIAA4BygAjVWgACosfkcOhUgADgHqECNFSAAamw+h04FCADOASpQYwUIgBqbz6FTAQKAc4AK1FgBAqDG5nPoVIAA4BygAjVWgACosfkcOhUgADgHqECNFSAAamw+h04FCADOASpQYwUIgBqbz6FTgdQB8DUAPQD0pNVqCiwvGHl6wXqNqnUGsBrA7x1isGkDBVIEwKEAfgjgRABD6LqqArMBzCrYwxcF62VV+xeAXgC2OcZh810USA0AEwDc0v6uT6P1FagSADKalwCcrj+s+vSQEgDmA5haH+uiGGnVAJBBzwEwM4rRJ5BEKgDg4g8zGUMAQEZ6BoAlYYacVq8pAEA+g/IdIcy8DAWAzwD0AfDPMMNOp1frAPg2gDcAdE/HElMjCQUAEekPAEaaUivCZK0DgO/+YSdVSADIyOcCuCmsBLZ7tw6AjQCOsG2B6exDA0DEOwvA86ZVDJi8ZQAMB7AsoHbsGogBANvb3wS20pDyClgGgPzm/+vyQ2YLjwrEAAAZjrwRnOxxXLUJZRkAP2m/6Kc2ZkU40FgAINLIBWA3RKhR1ClZBgC/AAw/tWICgKhxDoBnwstiJwMCwI5XMWYaGwD+A6AvgE0xihVjTgRAjK7YySk2AIhyKwDIF8QsBRQgAAqIxCqZCsQIAEn2NgDyHRFLjgJ1BkDR+9g5ibIVkHfbqm4HLuvDWABPlW1Ut/p1BkCZd6+6zQuN8bqeB1A2p/8COBrAhrIN61SfAKiT22HHWjUAZLR/BPC9sMOOu3cCIG5/UsouBABEv58B+HFKQvocCwHgU03GaqZAKABIThcCeIL27K0AAcBZUZUCIQGwE8BAAG9WNVgr/RAAVpyyn2dIAIh6cqrwCADy5SBLuwIEAKdCVQqEBoCM8+cAflTVgC30QwBYcCmNHGMAgCg5CcCv0pDUfRQEgLuGjFBMgVgAIHnI8yJeL5Z22rUIgLT9jWl0rgCQG33kSU8+ypr28wTlcNFaFwKg1vZXOnhXAMzwfP7DnQCurVSBCDsjACI0JdGUXAEgc/URABM96nM5gAUe45kLRQCYs8xswj4A8E0ArwAY5FEFeYak/ERYy0IA1NL2IIP2AQBJXH7LfxbAAZ5G8WcAowF87CmeqTAEgCm7TCfrCwAigvyWL9f4+yr3AfiBr2CW4hAAltyynatPAIgSCwFM9iiJAEBAUKtCANTK7qCD9Q0Ambt/AnCcx1Gd0v4dg8eQcYciAOL2J6XsfANAtBkM4CUAnTwJJc+ZHAPg757iRR+GAIjeomQS1ACAiDPN89b9AQBTk1E9ZyAEQF2cDj9OLQDIyOZ7XrTTAcwLL5l+BgSAvsbs4f8KaAJA4q8EMMyj2PLT4Ise40UZigCI0pYkk9IGQL92CHT1pN5aAHKy8N88xYsyDAEQpS1JJqUNABFNLhOWy4V9FbltWG4fTrYQAMlaG93AqgCADPoezxf1yE1It0anpqeECABPQjJMrgJVAUASkfsF5JJhX+VcAE/7ChZTHAIgJjfSzqVKAPQCINf4d/Mk6ToA4wG84yleNGEIgGisSD6RKgEgYo4D8FuPqj4O4CKP8aIIRQBEYUMtkqgaACLqLZ4fEjoTwJyU3CIAUnIz7rGEAIAoIpcKj/QojXwUWOwxXtBQBEBQ+WvVeSgAdAEgn+F7eFJbHjYqEHjLU7ygYQiAoPLXqvNQABCRT/d8VZ88dlwgsMO6gwSAdQft5B8SAKLSjQDmepTr5vaYHkNWH4oAqF7zuvYYGgCi++8AnOPRgEsBLPIYr/JQBEDlkte2wxgA0BHARgC9PbnwXvtHgb94ild5GAKgcslr26ErAO7wpFz39seFewqHTe1nEpi8c5AA8DUNGCdPAVcA5MUP+bpcdrw8ZAKt9k0AtKoc25VVgAAoq1gF9QmACkRmF20KEAARTgQCIEJTEk2JAIjQWAIgQlMSTYkAiNBYAiBCUxJNiQCI0FgCIEJTEk2JAIjQWAIgQlMSTYkAiNBYAiBCUxJNiQCI0FgCIEJTEk2JAIjQWAIgQlMSTSllAFwL4E6LvhEAFl2zmTMBEKFvBECEpiSaEgEQobEEQISmJJoSARChsQRAhKYkmhIBEKGxBECEpiSa0k8dx7XdsX2z5t8HcLhDfH4J6CBeq01nAZBz2lstswFIDBYqsAzAcAcZeB6Ag3itNiUAWlWO7fZUgAAwOCcIAIOmRZoyARCpMc3SIgAMmhZpygRApMYQAAaNMZgyAWDQNO4ADJoWacoEQKTGcAdg0BiDKRMABk3jDsCgaZGmTABEagx3AAaNMZgyAWDQNO4ADJoWacoEQKTGcAdg0BiDKRMABk3jDsCgaZGmTABEagx3AAaNMZgyAWDQNO4ADJoWacoEQKTGcAdg0BiDKRMABk3jDsCgaZGmTABEagx3AAaNMZgyAWDQNO4ADJoWacoEQKTGcAdg0BiDKRMABk3jDsCgaZGmTABEagx3AAaNMZgyAWDQNO4ADJoWacoEQKTGcAdg0BiDKRMABk3jDsCgaZGmTABEagx3AAaNMZgyAWDQNO4ADJoWacoEQKTGcAdg0BiDKRMABk3jDsCgaZGmTABUYMwdAL7jsZ/eAOSv1bIZgPyxUIEBADo7yPBXAJ86tN+zqczLFwAs9hizYaiqng6c8qOhtT1i/PoqMF4bAlUA4EIAv6mvhxw5FWhZgfUA+rfcukDDKgDg+lm9wDBYhQokq4DqGlUN3m4JAZDs3OTAKlBAdY2qBicAKpge7CJ1BVTXqGpwAiD1ucnxVaCA6hpVDU4AVDA92EXqCqiuUdXgBEDqc5Pjq0AB1TWqGpwAqGB6sIvUFVBdo6rBCYDU5ybHV4ECqmtUNTgBUMH0YBepK6C6RlWDEwCpz02OrwIFVNeoanACoILpwS5SV0B1jaoGJwBSn5scXwUKqK5R1eAEQAXTg12kroDqGlUNTgCkPjc5vgoUUF2jqsEJgAqmB7tIXQHVNaoa3DoAli2Tk6J0yogRI1oOnJfXxIkTsWXLlsLxL774Ylx++eWZ9RcuXIhFixYVjrdnxVmzZuGkk05quX2zhrNnz8by5ctVYkcSVHWNqgZPAQDDhw9XmQcdOrQu/XnnnYcnn3wyM68HHngAU6dOLZz3W2+9hf79G587sWHDBvTt27dwrEYVBQAzZ850ipHVWEBKALQubeuzsHifZs8DkHfaGAEg0r/++usYNGhQpguHHXYY3nvvvVyXTj31VCxdujSz3llnnYXnn38+N06zCgSAk3yqa1Q1OHcA2ca77AAk6tChQ7Fq1arMDu6++25cffXVuTNvyZIlGDVqVMN6r776Kk444YTcGHkVCIA8hZq+rrpGVYMTAHoAkMjyznzGGWdkdtKvXz+8/fbbma8PGzYMK1euzHxdFr9AwLUQAE4Kqq5R1eAEgC4AjjjiCGzcuLHlXcAjjzwC+cKwURG4yPbfRyEAnFRUXaOqwVMGgHzxtGLFipadlUXhozz88MOYNGlSZqgBAwZg3bp1e70+ZMgQrFmzJrOdfPEnXwD6KM0A4KqjtOeXgK27RAA00a7Zl4Ay6Vx+ymvdst1bdu7cGZ988klmuPnz5+OKK67Y6/X7778/86c/+cnv0ksv9ZUi8gAQg47eBus/kOoaVQ2e+g4glol7++2347rrrms49T7//HMMHDhwt13AUUcd1fb/jh07NmzTrVs3fPjhh96mMgHgJKXqGlUNTgA4GV+q8RdfZD986Z577sFVV131Vby5c+fixhtvbBi/6K8HZZIjAMqotVdd1TWqGpwAcDK+VGPZAchOoFHZvn07unfvjm3btrW9vHnzZhx66KEN6+6///7YsWNHqb7zKhMAeQo1fV11jaoGJwCcjC/d+IMPPsDBBx/csN3NN9/c9q4/fvx4PPHEEw3ryEKVS2t9FwLASVHVNaoanABwMr50Y/k1QH4VaFQ++ugjHHTQQW2/6x933HF7VZFdwgEHHFC6zyINCIAiKmXWUV2jqsEJACfjW2rc7Lr+yZMn48EHH2wYV74jkO8KNAoB4KSq6hpVDU4AOBnfUuPRo0fjhRfk0fLFy/vvv4+ePXsWb1CyJgFQUrDdq6uuUdXgKQOgFUurunbg5Zdfxsknn1w4xQkTJuDRRx8tXL9sRd9XAlalY9lxKtVXXaOqwQmA3adEVRP32GOPxRtvvFFoPr755ps45phjCtVttRIB0Kpybe1U16hqcAIgDACk18cffxwXXHBB7syTm4nkjkDNQgA4qau6RlWDEwDhADBlyhQsWLCg6cyrakdCABAAOsfBOOma39j3gSBVLTgZ2aeffopOnTrlDvLcc8/F008/nVvPpQIB4KIePwI4qefS2CoA5PitoncbylWBffr0cZEpty0BkCtRswqqu3TV4Cl/BJB381aumtO+dVUu5vnss89KzbhrrrkGd911V6k2ZSrn/QwYo45lxqdcV3WNqgZPHQCx3A246wRsdptv1kSVG4n22WcftXmcB4AYdVQTo3xg1TWqGpwAKO+2S4sjjzwy8xCP2267DSNHjmy7NbhRmTdvHqZPn+7SfWZbAsBJVtU1qhqcAHAyvnRjuQJQrgRsVLp27Qo5ATjrRiBp06NHD2zdurV0v3kNCIA8hZq+rrpGVYMTAE7Gl2osV/7JFYCNymOPPYZLLrmk7SU55kt2Co3KU089hbFjx5bqt0hlAqCISpl1VNeoanACwMn4Uo3lhJ+jjz66YZvBgwe3PUdASrNzA+T1E088EatXry7Vd15lAiBPIe4AnBTSamzhTEAZu5zsKyf8NiryBKFx48Z99dK+++6Ld999N/NAkLVr10IuJfZZCAAnNVXfpFWDcwfgZHzhxnKvf5cuXRrWP/PMM/e6O/Cmm27CnDlzMuP7vjmIAChsZaOKqmtUNTgB4GR8ocYzZsyAnPbTqDz77LMYM2bMXi8dcsgheO2119CrV6+G7T7++GPIl4a+CgHgpKTqGlUNTgA4GZ/bWB4vJqf+ZpWzzz4bzz33XMOXr7/+etx6662ZbeX4sCyw5Ca2RwUCoKxiu9VXXaOqwVMGgJOlQNtVhEUv183q67777sO0adMaviwLXwCQVQ488EDI6UG9e/fOrLPffvth586drkNt+lwA1+BV3l/hmmuL7VXXqGpwAiDbclcAyG/2W7Zsaend/8tGV155Je69997MGGUfM54VyPe9ALv2QwC0iJX2ZgRAE/183wy0a1euAJA7+Bp9vpc+5KnB8uDPImXTpk1NdwFFHzPerC8CoIgTmXVU16hqcO4AdHYAcqpvs6f2Nvvsv2dGl112GR566KHMRJcuXYrTTjvNaQYTAE7yqa5R1eAEgA4A5LivrN/q169fj/79+5eacXm7gFNOOQWvvPJKqZi7ViYAWpZOGqquUdXgBIB/AJx//vlYvHhxZuCLLrqo7TiwMiVvF/DOO+9kXj5cpB8CoIhK/AjgpJJG4+HDh2uE/SpmK2cD5OXUSkxJKC+u1NGM7SJ0q3m59FlhW9U3adXg1ncAFZrMrqhAlgKqa1Q1OAHAWU0FnBVQXaOqwQkAZ/MZgAqorlHV4AQAZy8VcFZAdY2qBicAnM1nACqgukZVgxMAnL1UwFkB1TWqGpwAcDafAaiA6hpVDU4AcPZSAWcFVNeoanACwNl8BqACqmtUNTgBwNlLBZwVUF2jqsEJAGfzGYAKqK5R1eAEAGcvFXBWQHWNqgYnAJzNZwAqoLpGVYMTAJy9VMBZAdU1qhqcAHA2nwGogOoaVQ1OAHD2UgFnBVTXqGrw9qFPBrDQWQYGoAL1U+B9AD01h10FAIYAWKM5CMamAokqMBvALM2xVQEAyb8fgAUAjtccDGNTgUQU2AxAnvaquvhFq6oAoOGLiDPTIbA6XR1yY9NqFVgmxyI6dDlCjkx0aB+sKQEQTHp2HJECBEBEZhRNhTuAokqxXp4CBECeQhG+TgBEaIrRlAgAg8YRAAZNizRlAiBSY5ql5QoAaS9fBLJQAQLA4BxwBQB/BTBoulLKBICSsJphCQBNdesVmwAw6DcBYNC0SFMmACI1RvM7AH4EMGi6UsoEgJKwmmG5A9BUt16xCQCDfhMABk2LNGUCIFJj+BHAoDEGUyYADJrGHYBB0yJNmQCI1BjuAAwaYzBlAsCgadwBGDQt0pQJgEiN4Q7AoDEGUyYADJrGHYBB0yJNmQCI1BjuAAwaYzBlAsCgadwBGDQt0pQJgEiN0dwB8HZgg6YrpUwAKAmrGdbHDsDkQY6aotY0thwuy0NBjZnvCgBjw2W6ESvAU4EDmEMABBCdXTZUgAAIMDEIgACis0sCIJY5QADE4gTz4A4gwBwgAAKIzi65A4hlDlwB4JexJMM8aq1AXwAbLCpg+dFgowAssSg6c05OgW8A+LfFUVkGQEcA2wB83aLwzDkZBV4EMNrqaCwDQDSXRyhPtCo+805CgWmWP4paB8DpAITALFQghALvAjgewD9CdO6jT+sAEA0WAJjiQwzGoAIlFbgSwC9KtomqegoAOAiAkPhbUSnLZFJXQO4jkd//TZcUACAGDAWwyrQTTN6SAvKGc7ilhLNyTQUAMr6uAOYDGJeCMRxDtArcAuCGaLMrmVhKAPhy6BMAXAXguyW1YHUq0EyBZwDMA5DULeQpAuBLE+X+bvmVoEf7H6c3FSijgFzYsxnAegDPtf+7THsTdVMGgAkDmCQVCKkAARBSffZNBQIrQAAENoDdU4GQChAAIdVn31QgsAIEQGAD2D0VCKkAARBSffZNBQIrQAAENoDdU4GQChAAIdVn31QgsAIEQGAD2D0VCKkAARBSffZNBQIrQAAENoDdU4GQChAAIdVn31QgsAIEQGAD2D0VCKkAARBSffZNBQIrQAAENoDdU4GQChAAIdVn31QgsAIEQGAD2D0VCKkAARBSffZNBQIrQAAENoDdU4GQChAAIdVn31QgsAIEQGAD2D0VCKkAARBSffZNBQIrQAAENoDdU4GQCvwP5g/JTHxgcQoAAAAASUVORK5CYII=;" vertex="1" parent="1">
          <mxGeometry x="610" y="50" width="86" height="86" as="geometry" />
        </mxCell>
        <mxCell id="BWZjfHxMxovDK7LopNrh-19" value="" style="endArrow=none;dashed=1;html=1;" edge="1" parent="1">
          <mxGeometry width="50" height="50" relative="1" as="geometry">
            <mxPoint x="570" y="160" as="sourcePoint" />
            <mxPoint x="570" y="20" as="targetPoint" />
          </mxGeometry>
        </mxCell>
        <mxCell id="BWZjfHxMxovDK7LopNrh-20" value="&lt;font style=&quot;font-size: 14px&quot;&gt;&lt;b&gt;live.v114.com&lt;/b&gt;&lt;/font&gt;" style="text;html=1;" vertex="1" parent="1">
          <mxGeometry x="370" y="141.13" width="100" height="30" as="geometry" />
        </mxCell>
        <mxCell id="BWZjfHxMxovDK7LopNrh-21" value="Web上传&amp;nbsp; &amp;nbsp; &amp;nbsp; &amp;nbsp; &amp;nbsp; &amp;nbsp; &amp;nbsp; &amp;nbsp; &amp;nbsp; &amp;nbsp; &amp;nbsp; &amp;nbsp; &amp;nbsp; &amp;nbsp; &amp;nbsp;|&amp;nbsp; &amp;nbsp; &amp;nbsp;PC EXE软件上传" style="text;html=1;align=center;verticalAlign=middle;resizable=0;points=[];autosize=1;fontSize=17;fontStyle=1" vertex="1" parent="1">
          <mxGeometry x="354" y="193" width="380" height="30" as="geometry" />
        </mxCell>
        <mxCell id="BWZjfHxMxovDK7LopNrh-24" value="" style="shape=parallelogram;perimeter=parallelogramPerimeter;whiteSpace=wrap;html=1;dashed=1;fillColor=#E6E6E6;strokeColor=#666666;fontColor=#333333;" vertex="1" parent="1">
          <mxGeometry x="219" y="-170" width="140" height="60" as="geometry" />
        </mxCell>
        <mxCell id="BWZjfHxMxovDK7LopNrh-25" value="" style="shape=parallelogram;perimeter=parallelogramPerimeter;whiteSpace=wrap;html=1;dashed=1;fillColor=#E6E6E6;strokeColor=#666666;fontColor=#333333;" vertex="1" parent="1">
          <mxGeometry x="411" y="-170" width="139.05" height="60" as="geometry" />
        </mxCell>
        <mxCell id="BWZjfHxMxovDK7LopNrh-28" value="" style="shape=image;verticalLabelPosition=bottom;labelBackgroundColor=#ffffff;verticalAlign=top;aspect=fixed;imageAspect=0;image=data:image/png,iVBORw0KGgoAAAANSUhEUgAAAQAAAAEACAYAAABccqhmAAAfw0lEQVR4Xu2deZgdRbXAz7mTGSYkITGJCUlAQUBZngiKsshy7wREEEQSCG4gghJRg0QRiMz06dMzSQzJC5qggoiCIGgQUdzYw8tTwOU9cUHhuYCCoLJIDEGY5N7zvhruwBAmmdtdvVX36e/Lxx/Uqarzq7q/qdu3uhpBLyWgBEpLAEubuSauBJQAqAB0EiiBEhNQAZR48DV1JaAC0DmgBEpMQAVQ4sHX1JWACkDngBIoMQEVQIkHX1NXAioAnQNKoMQEVAAlHnxNXQmoAHQOKIESE1ABlHjwNXUloALQOaAESkxABVDiwdfUlYAKQOeAEigxARVAiQdfU1cCKgCdA0qgxARUACUefE1dCagAdA4ogRITUAGUePA1dSWgAtA5oARKTCC3AiCiUYg4QUQmAID5N7bE41SI1BuNxtpKpbK2v79/bUdHx1pm3liIxBxOIlcC6Onp2butre1tIvI2ANjPYa7a9dYI3A4A1wLAbcz829ZCtFScBHIhACJ6LwB8FAD2jTM5rcspAncBwOeY+Uqneu14ZzMVABFVAWA+ALzdcY7a/fgIXA8AFzCzWR3olTCBzARARL0A0J1wflq9uwSWMfMn3e2+Gz3PRABEtAIA5rmBSHuZIYGbmPnwDNsvfNOpC4CIfg8AOxeerCYYCwER+XsQBNvGUplW8hICqQrA87y/IeJUHQclEJLAH5h5l5AxWrwFAqkJgIhuBIC3tNAnLaIEhiOwkpnPUDTxEkhFAES0FADOirfrWlsJCfQxc08J804s5cQF0Pypb3ViGWjFZSNQ058I4xvyNATwHf2dP74B05rgemY+RjnEQyBRATR3+F0RT1e1FiXwPIETdcdgPLMhaQHcqXv64xkoreVFBO5i5v2ViT2BxARARLsDwD32XdQalMCwBGYw88PKxo5AkgIwD/estOueRiuBzRI4gZlXKR87AkkKwNz5Nw/72F63AMBfRORB24o0PlsCiLgdALwSAA6NoSe6LyAGiIkIwBzmAQAbbPsnIrOCILjOth6NzxcBIjJ/uY+37JXeB7AEaMITEYDv+5NF5FHL/l3IzPrAkCXEvIZ7nucjIln072/MPM0iXkOTEgARmYd9zEM/kS5EvNn3fd02HImeO0FEdLPl14HRzPyMOxnnr6eJrACIaB8A+JlFuhcx8+kW8RrqAAEiuhQATonaVUTczff9e6PGpxHX09OzPyIegIhHAcB9InIfIt4HAOYrzBNp9GFLbSQlAHPzL/L2XxHhIAj8rOFo+8kSiOFrQC63BRPRXgAwW0RmG0ltgeIdRgQAcDkz/ypZ2sPXrgLIgrq2OUCgSAIgom0AYJb54AOA+Wvf8iUi/0bEle3t7Su6u7v/2nJgDAVVADFA1CqiESiCAHzfP9j8pW9++M3PnDbXHwDgg2k+7KQCsBkujbUi4KoA+vr6ZmzcuHFgiQ8AB1tBGD44ta82KoAERk+rbI2AawJgZvPOisEPvlnyJ3ntkca7ElQASQ6h1r1FAi4IoLu7e7dRo0aZD735fr93ikNqft58Q9ISUAGkOKLa1IsJ5FUARNTRvINv7uLPEpFEPictzIefM/MbWygXuUgiidmeAqQ/A0YeT6cC8yYAInqTuYuPiOYv/k55gImI7/F9/6qk+qICSIqs1jsigTwIwGxbbzQaA3/pc3po7Y3M/NYRYUYsoAKICE7D7AlkKQAiMk8kDm7Webl9NsnV0Gg0Duzt7f1xEi2oAJKgqnW2RCBtARDRq5rf6c3Pdy69ffp8Zj6nJaghC6kAQgLT4vERSEsARGSW94O79DrjyyCdmszzA0EQ7JpEayqAJKhqnS0RSFIAPT09r6tUKuYvvflnjqdz+lq/fv3YZcuWrY87CRVA3ESH1LdmzZrd+/v7/37ooYc+nmAzzlYdtwDOPvvscZ2dnbPMB19EjnYWzPAd35GZH4g7JxVA3EQB4NZbb/UrlcpxALBHs3pzOvL5tVrt2wk052yVcQmgp6fnoEqlMrjE395ZIFvoeKPReFNvb6/NI/bD1q4CiHm2rF69erNnITYaDZ45c6Y+5txkHoMAVorInoh4SMzDGHt1bW1tUK/XbepN5PkAFYDNkAwTuyUBmOIqgRegxSCAmEcv/uomTJgAU6ZMgf7+fnjgAasVvAog/uGJv8aRBKASKL4AOjo6YOrUqQMf/HHjxg0kbD78KoAWP28ubwVuRQAqgecmQtFWAJMmTRr40JsP/6aXCqDFD78pVgYBqASKIYDRo0c//9d+66233uwsVwGoAIYlUOZ7Ai6vAMxfevNv8uTJLc1sFUBLmJ4rVJYVwCCSskrANQGMHTt24EM/ffp0GDXKvPum9UsF0Dqr0gmgrF8HXBBApVIZWOJvu+22MH78+BCz+MVFVQAh0JVtBVDWlUCeBWA+7OaDb/7ax3GpAEJQLKsAyrYSIKLLAeCkEFMj0aLt7e3Pf+i3dEMvSidUACGolVkAZZKA53nfQsRjQ0yNRIpOnDgRpk2bBi9/eXLHAqgAQgxd2QVQFgl4nncTIh4WYmrEVrSzs3Pge/12220X+oZelE6oAEJQUwE8B6vovw4Q0WafmwgxXUIVNX/lzYfe5oZeqAabhVUAIaipAF6AVWQJpCWAMWPGwIwZM2K7oRdiKj9fVAUQgpoK4CWw/FqtxiEQOlE0SQEg4sD3evPXPu4belHgqgBCUFMBDAurcBJIQgBmaW8+9Ene0AsxlXUFEAWWCmCz1AolgbgEYHblmQ99Wjf0osxpXQGEoKYC2CKswkjAVgBZ3dALMZV1BRAFlgpgRGqFkICtAPbaay8wB264cOkKIMQoqQBaguW8BFQALY3zYCE9ESgUrowKt3ogSEzdc1oCKoBQs0AFEApXRoVTFoDJ0lkJqABCTVIVQChcGRXOQADOSkAFEGqSqgBC4cqocEYCcFICKoBQk1QFEApXRoUzFIBzElABhJqkKoBQuDIqnLEAnJKACiDUJFUBhMKVUeEcCMAZCagAQk1SFUAoXBkVzokAnHiUWAUQapKqAELhyqhwXgRg0kfEOdVq9ZqMUIzYrApgRERDC6gAQuHKqHDOBHBntVo9ICMUIzarAhgRkQogFKIcFM6TAJo4arVa7fYcoHlJF1QAoUZFVwChcGVUOG8CyPOJQiqAUJNUBRAKV0aF8yYAANAVQEZzYWiz+jRgiEHQpwFDwNpy0Qfa29v3PPDAA9fFVmOMFekKIBRMXQGEwpVR4ZytAN5fq9UuywjFiM2qAEZEpDcBQyHKQeEcCYBrtZqfAySb7YIKINTo6AogFK6MCudBACLS29XV5WWEoOVmVQAtozIFVQChcGVUOAcC6KvVaj0ZpR+qWRVAKFwqgFC4MiqcpQAQcVG1Wj0vo9RDN6sCCIVMBRAKV0aFsxIAIi6uVqufyijtSM2qAEJhUwGEwpVR4YwEsKRWq52bUcqRm1UBhEKnAgiFK6PCaQsAEc+vVqvnZJSuVbMqgFD4VAChcGVUOGUBLKvVap/MKFXrZlUAoRCqAELhyqhwWgIQkeVdXV2fyCjNWJpVAYTCqAIIhSujwmkIQEQu6Orq+nhGKcbWrAogFEoVQChcGRVOQQCfrdVqZ2aUXqzNqgBC4VQBhMKVUeEkBYCIK6rV6scySi32Zm0F0NbW9vxbgdvb22PvX5wV6tOAIWjq04DDwrqwVqvNC4Ex90VtBTA0wfHjxw/IwLwxOI+XCiDEqKgAXgLrc7Va7aMhEDpRNE4BDE14xowZAzIYPXp0bjioAEIMhQrgBVgi8oWurq4Ph8DnTNGkBDAIYOzYsQMi2HbbbTNnogIIMQQqgOdhXVSr1U4Pgc6pokkLYCgMIwGzMhg3blwmjFQAIbCrAABE5ItdXV1zQ2Bzrqjnebcg4sw0O97Z2fn8qmDUqFGpNa0CCIG67AJAxEuq1eppIZA5WZSIrgOAd2TV+cmTJ8P06dNh4sSJiXdBBRACcckFcGmtVvtACFzOFvU870pEfE/WCZiVgLlXMHXq1MRuHKoAQoxyWQWAiF+uVqunhkDldFHP83xEpDwlMWHChIFVwZQpU2LtlgogBM6SCuCyWq32/hCYnC+aRwEMQkXEgVWBEUEcNw5VACGmawkFcHmtVjs5BKJCFM2zAIYCNgKYNm3agAyi3jhUAYSYsmUSgIhc0dXVdVIIPIUp6ooANv050Ygg7I1DFUCIaVsiAVxZq9VODIGmUEVdFMDgAJhdhmZvgZFBKzsOVQAhpm4ZBICIV1Wr1czvgIcYltiLuiyAoTDMz4lGBFu6cagCCDF9ii4ARLy6Wq2+OwSSQhYtigAGB8c8kTi4Ktj0xqEKIMQULrgAvlGr1d4ZAkdhixZNAEMHyjydaPYVDN44VAGEmMZFFQAirqpWqyeEQFHoorYCEJGbEfHNALB1XkFVKpUBCZgtyEYCFpceCGIBL7XQNWvW7F6v1835/C/6ft9oNHjmzJm5fldfapCaDdkKwLwuq729/f4NGzbMBgDz74C0c0ixvX2Z+adxt4dxV2jqI6IqAKyOWrfLK4DBnFevXr0XAFQR8a8icmetVnsoKo+ixsUhAGa+fZCP7/tdImJEMAsAsn8GON6B24mZ/xRvlQAqgLiJan0tE4hbAIMNE9FEIwJENCJ4a8sdynHBZ555ZsKSJUvWxt1FFUDcRLW+lgkkJYChHSCifczXg6YQdmm5czkqKCJ/D4IgkRWNCiBHA122rqQhgCGrglHNrweDK4M2h3gvY+ZEXgCjAnBoFhStq2kKYCi77u7u11QqlVmIaO4XvMEBrocx8y1J9FMFkARVrbMlAlkJYGjnmPmIRqMx+CvChJY6nmIhEfllEATmhnIilwogEaxaaSsE8iCAwX4uXLhwWn9//6AIzK9YubhE5ONBEFyQVGdUAEmR1XpHJJAnAQztLBEd2Pwp0QjhFSMmklyBh/r7+/davHjx40k1oQJIiqzWOyKBvApgsONENNb8lNi8efj2EROKv8BcZv5i/NW+UKMKIEm6WvcWCeRdAJusCvYc8nPiHkkPbVqb4VQASY+k1r9ZAi4JYGgSnucd29xkZL4iJPH6ofnM/Jk0po4KIA3K2sawBFwVwJCvCDs0NxgZEewfxzCLyJwgCK6Jo65W6lABtEJJyyRCwHUBbLIqmGn2FTTvGUyNAOyWSqWygoi+GyE2cogKIDI6DbQlUCQBDLJYsGDBpI6OjsEHkg5vgdFdAHAxM1/WQtnYiyQlgP0A4E6L3n6GmedbxGuoAwSIaBUAHG/R1b2Z+W6L+ERDgyB4Y71ePwwRzVOKM0XkPkS8DwDurVQqP3322WfvWLRo0SOJdmKEyhMRgO/7u4rI7ywSu56Zj7GI11AHCBDRgwCwnUVXX8bMT1rElz40EQEQkXlyycpsad8MKf1MSBmA53nzEXG5RbNPMvPLLOI1FJI7D6ATAP4dA+E9mPm3MdSjVeSIgO/7B4jINyz/+t/NzHvnKC0nu5LICsCQIKLfAID1hgmzIQIRzWFqVgeqRRwd84K46RFjcxtWqVT+3Gg0/pl2ByuVyvb1en2nmN4H+FVmfl/aORStvcQEEMMd3qKx1nxiJCAipwVBcEmMVZayqsQE0NPT8+ZKpfKjUlLVpBMnMGrUqN17enpsbjQn3kcXGkhMACZ5z/PuRcTXuABC++gOAfMLUxAEu7vT4/z2NFEBENG5ALA4v+lrzxwlsICZP+1o33PV7UQFsGLFiq0ef/zxOwDg9bnKWjvjMoH/nTRp0gFnnHHGsy4nkZe+JyoAkyQRvRcArshLwtoP5wmcyMxXOp9FThJIXABNCXwLAI7NSc7aDXcJfJOZbbYOu5t5Qj1PRQDnnnvuyzo7O38mIjsllIdWW3wCP1m/fv3MZcuWrS9+qullmIoATDrmKOa2trZ700tNWyoSgY6OjunnnXee1fbyIvGIK5fUBGA63NPTc1ClUlkTV+e1nnIQaDQa+/X29v6kHNmmm2WqAjCp9fX1bb9hw4bbAGDndFPV1lwjYF6JValUDvV932wr1ysBAqkLwORwzjnnjO/s7DQHILwjgZy0ymIQuAkRT/R9/x/FSCefWWQigEEUzUdCP275VFg+yWqvohJ4SESWJ/kyjKgdK2JcpgIwQInIHAhhJKAnABVxhoXLybwBZzkzPxQuTEtHJZC5AAY7TkQ7i8gRiHgEAJh/epWDgDkB94Z6vb66r6/v/nKknJ8scyOAoUiaW4gPAgDzssYJiDih0WiMjQsbIpp7D6+zrO92y/g0wm3fcXe3iHwnro4i4pOVSmVto9FYa/772GOP/WjlypW6pTcuwBHqyaUAIuTRcggRGan8EQAmthz00oLfY+ajLeJTCW0eMX1U1MbMXfh169bteMEFF8RxulPUbmhcggRKJwDf998pIldbMj2Gma+3rCPxcM/zjkZEq35WKpU5RJTaiyoSh6INvIhA6QRARJcDwEk284CZneFGRGKTKyJ+xff9U2zq0Nj8EnBmIseB0Ow/2Gqrre5HRJvTZH/AzG+Loz9p1OH7/vdEJHJ/EfEREdmBmfvT6K+2kS6BUgkgjuU/Ih7r+/630x2m6K0RkXmtte2NvOOZ+ZvRe6GReSVQNgFcJiJWJ8m6tPwfnHS2XwMA4FJm/kBeJ7H2KzqB0giAiLZpHi0eefkvIjcGQfDW6LiziSSi7wPAkRatPwwA2zNzw6IODc0hgdIIwPO8ExDx65ZjMJuZzeEmTl2e5x2DiFZfW0TkuCAIrnUqce3siARKIwAi+goAnDwikS0UcHH5H+PXgC8x8wdt+Gls/giUQgBLliwZ9/TTT/+lubMw0iiIyM1BELwlUnAOgojoB5ZbrB9i5u1zkIp2IUYCpRAAEc0BAPMuOpvL6Tvhvu+/Q0SuswEgIrOCILCqw6Z9jY2fQFkEUOrlf4xfAy5h5tPin4ZaY1YECi+As88+e9zo0aPNe+jHR4UsIrcGQXBo1Pi8xBHRDwHA5leMB5n5FXnJR/thT6DwAjDHSDcajVWWqE5gZts6LLtgH+553rGIaPUrhmsboeypFbuGwgvA9/0vi8j7bYbR5bv/m+Ydw6agi5n5QzY8NTY/BAotACIyZwj8FQDMJqCo12pm7ooanLc4IroBAA636NdfmPmVFvEamiMChRaA53nHI6LV0h0R3+X7vu0GotwMORHNAgCrDT0i8vYgCL6bm6S0I5EJFFoARHQpAFg9ylqk5b+ZJUQ0CgA2RJ4xzwVexMynW9ah4TkgUFgBLF26dMy6deseQcRxFpxvZ+aaRXwuQ4noRgCw2dT0ADPvmMvktFOhCBRWAER0HABYnWSDiO/xff+qUEQdKMzMsxuNhtXjvZVK5cjmz4oOZKxd3ByBIgtAl/+bGfXmoavPWH4sPs/MH7GsQ8MzJlBIAZx11lljxowZY14kabP8v42ZZ2Y8Pok17/v+TSJyWNQGEPF+3/dfFTVe4/JBoJACiGOJCwAnMvOV+Rim+HsRx1ck83MiM98Uf++0xrQIFFIAuvln5OnTXCU9NXLJLZb4HDN/1LIODc+QQOEE4Pv+1uY8ewCI/CIRRLzV933n9/6PNK+I6GYAsMnzT8y800jt6P/PL4HCCcDzvNmIaHWHW0RODoLAHB9e6CuOU5JE5NAgCG4tNKgCJ1c4AZT95J8wc7X5mvYnw8QMU/ZCZp5nWYeGZ0SgUAJYvnz56LVr1z4KAGOi8kTEm33ft9kkE7XpTOJ8379FRGx+7fgDM++SSee1UWsChRJATPvcTwmCwBwgUorL9/13i8jXLJOtMbMLL0u1TLN44YUSgOd5lyFi6c79t5mWCxYsmNTR0fGYTR0AsIKZP2ZZh4ZnQKAwApg/f/7obbbZxkzkrS043sTMNo/KWjSdXSgRmZt4kR95FpHfB0Hw6uwy0JajEiiMAOI47UZEPhAEgdlCXKrL9/2TRMTqV49Go3Fwb2/vf5cKXAGSLYwAfN8v5Wu/4piDvu9Pae6dsKnus8x8pk0FGps+gUIIgIg6ReQJRBxtgfAGZj7CIt7pUCK6DQBsHn2+j5l3dRpCCTtfCAHEtPw/LQiCS0o4BwZSJiJzcIrV15+2trYDPM+7s6wMXcy7EAIgIvP99SSbASjayT9hWRDR9Ob5iWFDh5ZfzsyfsKlAY9Ml4LwAms+2/xMAbJb/P2Rmm7fnpjtqCbVGRKsBoGpR/b3MvJtFvIamTMB5AcT0yqsPBUFwccrsc9ccEZm3/thy2JeZf5q75LRDwxIoggC+KiInRh1fERFmbkNEiVpHUeKIyLz158+W+Sxl5rMt69DwlAg4LYB58+ZtNXHiRPMwS2dUXoj4fd/3j4oaX7Q4IjJbeg+JmpeI/C4Igt2jxmtcugScFoDneccg4rdtkInIh4Mg+IJNHUWK9TzvdET8vE1OjUZjn97e3v+xqUNj0yHgtACI6AoAeK8Fqvoee+yx1Zw5c+oWdRQqtLe3d8eNGzf+yTKpTzPzAss6NDwFAs4KgIg6EPFfIrKVBafvMfPRFvGFDCWi/wKAgy2Su4eZ/8MiXkNTIuCsAOJY/gPAR5jZarmb0jil2oznefMQcYVlo3sz892WdWh4wgRcFsCV5sUdFnw2Tp8+feu5c+favibLogv5DO3t7d1l48aN/2fTO0Rc6Pt+t00dGps8AScFcPHFF7c//PDD5kTbDgtE1zPzMRbxhQ4lojUAcJBFkr9h5tdaxGtoCgScFEBMy//TmfmiFBg72YTnefMRcblN5xHxtb7v/8amDo1NloCTAiAi88IOm+V/PwCMZ2bb12MlOzoZ1t7d3b1bW1vbby27wMzsW9ah4QkScE4A5vXWIvI0IrZH5YKI3zFbiKPGlyXO87wfIeKbLfL9FTO/ziJeQxMm4JwAdO9/wjNiSPW+758lIkttWqzX67v39fX9zqYOjU2OgHMCICJzgu27oyIRkWcrlcpE3/efjlpHWeJ6enpeW6lUfmWTr4h4QRD02tShsckRcEoAZvkPAP8GAPPfqNd1zDwranDZ4ojoxwBwgEXev2TmvSziNTRBAk4JQE/+SXAmbKZqIjoXABZbtvwaZrbaV2DZvoZvhoBTAiCiqwDgXRajaVYPU5jZ9q24Fl1wK5SIzF/vX1j2+jxmXmRZh4YnQMAZAaxatartnnvuMT/b2Sz/v8XMsxPgWOgqPc+7AxH3j5qkiPwiCILXR43XuOQIOCOAOF77BQAfZOYvJYezmDWbLb0iYnUjr16v79zX1/fHYhJyNyuXBHA1ALzTArW56z+Nmf9lUUcpQ4loHwD4mU3yInJuEARLbOrQ2PgJOCEAIqoAgNm91xYVgYhcGwTBcVHjyx5HROa47/0sOPycmd9oEa+hCRBwRQDmZ7trLfM/lZm/bFlHacOJyGzpJRsA7e3tO3R3d9ueOWjTBY3dhIArAvg6AJxgMXrmrv/2zGzOD9QrAgEiMn/9rV76ISJnBUHwnxGa15CECOReAM3lv3lm33wNiHpdw8xzogZr3HMEiMjcBzD3A6JedzFz5F8TojaqcZsnkHsBeJ43GxG/aTOIInJKEARfsalDYwcEYH4JsD3kw6zEHlKe+SCQewEQ0TcAIPJfbxFZh4g7MPMT+UDubi+I6EAAsH0F+Hxm/oy7FIrV81wLQESQiOqIaNPPVcxsc/+gWCNumQ0RmV2BNnv7f8zMRiR65YCAzQcr8e4TkfnZ7hqbhkTk5CAIzMtD9YqBABGZ5wLM8wGRrw0bNkxftGjRI5Er0MDYCORdAFbLfwBYi4g7+77/WGzESl5REASH1Ot18/agyJeInBEEwcrIFWhgbATyLgDb9/V9nZltHh6KDXSRKiKiXwOAzbn/a5g58uvHisQy61xyKwDP845HxFU2gBDxfb7vf9WmDo19KQEiMqcEnWXDBhGn+r7/D5s6NNaeQG4FQETnA8AnLVJ8sr+//9WLFy9+1KIODR2GgOd5MxHxFhs4IjInCAKr+zs27WvscwTyLADzu/3JUQdKRK4OgiDy0WFR2y1LHBGZE4N3i5qveSt7EAR6YnBUgDHF5VkA3weAIy3yPJGZzfHheiVAgIguAIAzLarW3ZkW8OIKzbMAzHP7p0ZM9Inm8v/xiPEaNgIBz/MOR8QbooJCxCt83z8parzGxUMgzwIwr/02r/+Ocn2NmW1eGx6lzdLFEJE552+XKImLyIeCILg4SqzGxEcgtwLwfX9XEYl0nryIHBkEwQ/jw6Q1DUeAiD4FAAuj0NHXhkWhFn9MbgVgUiWiKDcC9a9//PNk2BqXLl065qmnnrorwp6AzzKzzf2DlDIsfjO5FsCCBQsmdXR0/BwAdmh1KBqNxn69vb0/abW8lrMj0HxTkxH1hBZruoGZj2ixrBZLmECuBdBcBRzVXGbuOQKL29va2s70PO+XCTPT6jchEATBvvV6/fMAsMWTfxHx5g0bNpy6cOHCBxViPgjkXgAG0/Lly0evXbt2ntlDjogzNkF3k4jcqb8pZzuhiKgDEc8QkY8BwHZDeyMiDyLi+cx8Yba91NY3JeCEAAY7fdppp7VPnjx5onm3HyKa//5aT/nN16Q2IgCA6W1tbdPq9fr6jo6ORydPnvzY3LlzzalOeuWMgFMCyBk77Y4ScJ6ACsD5IdQElEB0AiqA6Ow0Ugk4T0AF4PwQagJKIDoBFUB0dhqpBJwnoAJwfgg1ASUQnYAKIDo7jVQCzhNQATg/hJqAEohOQAUQnZ1GKgHnCagAnB9CTUAJRCegAojOTiOVgPMEVADOD6EmoASiE1ABRGenkUrAeQIqAOeHUBNQAtEJqACis9NIJeA8ARWA80OoCSiB6ARUANHZaaQScJ6ACsD5IdQElEB0AiqA6Ow0Ugk4T0AF4PwQagJKIDoBFUB0dhqpBJwn8P+z/qPTuigqtAAAAABJRU5ErkJggg==;" vertex="1" parent="1">
          <mxGeometry x="247" y="-220" width="94" height="94" as="geometry" />
        </mxCell>
        <mxCell id="BWZjfHxMxovDK7LopNrh-30" value="" style="shape=image;verticalLabelPosition=bottom;labelBackgroundColor=#ffffff;verticalAlign=top;aspect=fixed;imageAspect=0;image=data:image/png,iVBORw0KGgoAAAANSUhEUgAAAQAAAAEACAYAAABccqhmAAAZiklEQVR4Xu2dCZQvRXXGf2BIXECJbE9FI4p7IoqIEsEAIotsrhjQoCwCokiiEkKMEojhGDAqApKgEDbhCKioHAJRQBZJWNxQCaIsGjUIIYmIMQbBnA9qcBhm3r+qu7qru+u75/SZeW9u3ar6qurr6u5b966AxQgYgWoRWKHanrvjRsAIYALwJDACFSNgAqh48N11I2AC8BwwAhUjYAKoePDddSNgAvAcMAIVI2ACqHjw3XUjYALwHDACFSNgAqh48N11I2AC8BwwAhUjYAKoePDddSNgAvAcMAIVI2ACqHjw3XUjYALwHDACFSNgAqh48N11I2AC8BwwAhUjYAKoePDddSNgAvAcMAIVI2ACqHjw3XUjYALwHDACFSNgAqh48N11I2AC8BwwAhUjYAKoePDddSNgAvAcMAIVI2ACqHjw3XUjYALwHDACFSNgAqh48N11I2AC8BwwAhUjYAKoePDddSNgAvAcMAIVI2ACqHjw3XUjYAIY/hx4CLAJsOaCay1g1YE0/7+BHwO3LrguAe4ZSBvdjEUQMAEMb1qsEha8Fv2LwrXi8JoZ1aK7gQuBi4ArwvWzqJJW6gUBE0AvMM+s5JHAq4BXAy8GVp5ZYpwKdwCXAWcBnwT0b0tBBEwABcEHNg6LXot/7bJN6b32HwQSEBmIFCwFEDABFAAd2B14PbBZmeoHV6seEU4FThhcyybeIBNAvwOsZ/o/BXbot9rR1PZZ4HDgS6Np8cgbagLoZwBXBw4Ii7+fGsddi0jgCOA/xt2N4bfeBND9GP0R8C7gad1XNakavg38NXDKpHo1sM6YALobkIcC7wP2766KKiwfCfwZ8L9V9LbnTpoAugH894G/CW/5u6mhLqv6SnAgcHld3e6+tyaA/BjvF+78D89v+n6LuhveDNzSYR0pppcBTwS06+lK/ifsBI7qqoIa7ZoA8o26XHN1139DPpP3WtKz8FfD3e+qgS38hV2dI4LnABsCzwd+NzMeJ4XdgFyPLS0RMAG0BDAUf1m46/9eHnOcB3wCuBi4KZPNUmaeAGwOvBbYOlMjvhF2A+dmsletGRNA+6F/N3BoezP3HqTRotc11e/g8oMQEejS4aa28h7gr9oaqbm8CaD56Ouznt7yv7y5iftLfhD4ACD32BpEbs9vB/4kQ2fPDrsBPSpZEhEwASQCFtR3CYv/8c2K31/qTECL/59b2hlr8Y0CCbymZQf+LZDAaS3tVFfcBJA25I8NE01v+tvIfwU7x7UxMqGyewVC/e2WffpI2End0NJONcVNAPFD/aawaJ8UX2RRzQuCnatb2pla8Q0CCbykZcduCySgndUvWtqafHETwOwh3g7QHWr72aozNeTjLq+2X83UrFNB81HvVXRgqq18BdAjgV6q1vJuJRkzE8DSkOVc+HLa0cLXZLTMRkBfCUQEci5qKwpXNvd1RceOLfMQMAE8cDpsAcxdz8s0UxT5Rov/u5ns1WJm3UACCpaSS64HvgxcCXwR+Fouw2O1MwQC+E1AHmSPCT/nfu8SUwXa1Ge8XwIKx6U6cy34+e3WKcDDuuxIBbb/PJwK7KKrcy7V2qHp0lx4FPCIJSr7KaDrOw0bI9dteTDOv+5saCtLsVIE8AJgm+AZpt+nJrqz6K5//tQ6Vqg/W4XdgFyMpybXAZ8G/insSnrtX58EoDvsrsBLgWf02st+K1NYK51cczCLvLgrqIrOWiic2lTlh8DnQ6zEc/roZB8EoIWvt+i6pix62aQtv75FW7pDYN/g/vvo7qoYhOXPAfIT6ZQIuiQAHYx5awULX7NF7qiH+KVSbwvnWYFsd+6txnIVdUoEXRHAjsDRFYS61l1fC/9D5eZH1TXrkVK7rqdWgML7Q1zJrF3tggB0wEMHW6YuvusPY4QVh0FfCvRuYKoJVeaQ/peQNUpfr7JIbgLQ2+/1srRsmEaU6kpBKk8O6a6G2co6W6W4A8qsJL8BhWSbsqh/WQ6Q5SSA24GpvpjRd1stel3fnPLMmkjfdJ5gjgzWmEifFnZjneC70Kp7uQhAW5Opfc+/EVCiCkXlkdeYnvct40JAjj06cqzrheGn/m8KoryKT277uTkHASil0+smgOi3gGvDpef76t1EJzCmi3VBsQoVmUi+KDrZqUWU48xBCbjkaPYK4OdNK29LAH8JHNy08lBOobAU7FLPNHKe0aXHiT5EW3thoIVvqRcBuYaLCBTvQa7A2l4vJtoVtslovBoghyZdzw3vKuQC30aUXLVxQJU2BPDsELuu6ZvXE4OjQ5aXGW0QdFkjUBABPZrsDbyxRRt2A7SekqUNAeiFmNJepYocGz4MfCG1oPWNwIQR0CnUtzWMO6HHV30ZSN6dNCUAPXd8qsFg6GScHDcsRsAILI6Azjs0CYii6MiKkpwkTQlAYatTv7Vqt6AXhhYjYASWj4BeSqbmg9CLQL3cVBKZaGlCAPrGmrp93wlQBFyLETACcQjopWRqEBm9lJdrerQ0IQClbJbrZax48cciZT0j8EAEUh+1rwj+DtE4NiEAecLpNFaM6Gz8HjGK1jECRmBRBI5PjIGgSFcKfRYlqQSgRI/KyxYj+p6/cUhuGaNvHSNgBB6MgBa00qPLdyBG3gn8bYyidFIJIMXx51hAwRssRsAItENAn81jk9HIbX2z2OpSCeDvgtNCjH0dxlBEXIsRMALtENg04fSpciQ+Pba6VAKQj7yCfcSITgYqBZbFCBiB9ghoYccEPvkJsGpsdakEEHvqTyGWl/Knjm2b9YyAEfg1AoocHJuJ+uGxB4RSCeB7gAIvzJJzgW1nKfnvRsAIRCOgAKHKTxkjOuUY5UiUSgBKtqhEHrPkiIbujLPs+u9GoFYEUvxv5BF4eQxQqQQQm9RS3kj6YmAxAkYgDwIpX+D0FUBfA2aKCWAmRKNWUDisx4XozHM/117wf+qgElIog+7cz/m/6/+UcttSFgETQFn8R1H7w8K7F2U21qUAFDlETl36AqRL50D0KGjpFwETQL94j6Y2ZdHVYlfKNV0rddzyu0Iuu/OACwG9GLZ0j4AJoHuMR1OD0q0pueqWIU58yYZrRyAiUHJLpd62dIOACaAbXEdldeh5FvWpSpeJIP+0MgHkx3Q0Foe+8BcCORUi0CdvYa+Q938A3BDCxF8JKKBsn2IC6BPtgdQ1toU/FSKQ771S3L14OW61CmarTNB9RbkyAQxkUfbRjLEv/DETwTGJp1iVPCb2fEybuWMCaIPeiMrK3VNb6CnK/iEi9FD7phwVTVOJKSfmNR12zATQIbhDMa2orkkx3YbS8IR26A771gT9vlQVv2KfFpXpncCyFuVnFTUBzEJo5H9vOwFTu39L8PxTOXkJdjl5F7bt8+ETZmqbu9JvEuh2sba8A/hAR400AXQEbGmzawJyqlGqqNyit9Y6makYcXLp/VG49Ps9CypbMRCB0mPpEik8JSzU6AATCR2QA5F81qNOrSXYTVVdJXg3KmdgDtkkhPDKYWu+DRNAbkQHYE/p1b6esR13ApeGgyDnZMx5KCLYHFD2mq0ALZpcsjWgJJelRPkqlOUqlyhq1ptzGZtnxwTQAaglTe4OKOJrDvlYuNNf0CQ9VGIDlAtSZLA9sGdi2aXUlRLrqEy2Us3o6LoCaeYSHcPVcdzcYgLIjWhBewrwqECPbUXJVo4GLmlrqGF5fSfXC73G2Wnn1avw8Qoj37do9yGX6lyiXVjOHdJcu0wAuUaosB1tofXM30bkd6+Fr0SrQxDtBkQEbRdS15/SFsNKL0PXygziM4F/zWzTBJAZ0BLmFCdROeabilxQtfBPaWqg43J6nhYRtHmhpsWo7/F9iV6I6qVnTklKzhFZsQkgEqghqylY6u80bOCYwqyletPNh0TJLddviFGTYvLk0w4ml/wUeGQuY/PsmAA6ALVPk9q267x+E9kFOL1JwYJllOJaqa6bSFdv0hdri9Jq/0WTRi5RJikxR0K9JoAEsIamqm37Wxo06vvhs9t1DcoOoYgO1ehFZWxaq/ltPhg4tIdOiFw/nrGerjwdTQAZB6lPU/rEdWSDCj+TEAe+gflei1wdjtWmVroX8NHUQon68v3XyT6l484hXfk1mAByjE7PNnSqT5M/VaYYVTllAs/Ha4MeAowoh6Xu3G1Ffh25fCMWtiUFP0cFbjuSmcr/PaC7WIoomo4m/RQlJbXcXP91MnLvHsC4CNAjS1O5A3hU08IR5UwAESANSaXJ3V/Rd5seRx1S35fXltjsUn3vAlTfd1s8CujT51UdDoIJoENwuzDd5O4fvXXrosE92dTBolQnmb52AYJgV+CkBCy0MPs4wm0CSBiU0qpN7v4HAoeXbnhP9e8MnJZYVx/vAuaaJJI6DNAx4aW+6StRrj4h6rRlH2IC6APlTHWk3v0VW67JZ8JMzS1iRmR3QELNfe4C5pr1W8BGwAvDTz2+XBYuHa3uU0wAfaLdoq7Uu7/cexV1tka5ItFtuM9dwNDGwwQwtBFZoj2pd389cw7Vt79ryFPP4pfYBXSNQax9E0AsUgX1Uu/+cg/W6cCaJfU4bq27ABPACFbJQeHlUWxTdxjQkd7YNufW00EcHciJlXcD741VnpCeCWAEg6lglwqbFSPykd8pRrECnTMSgooo5JkCkdQmJoCBj7iO+eq4b6wo1VSpSD6xbexLTwv64oTKFKNQTjs1iQlg4KO9W0JIK8XwUwIQy68R0KGfWD96pe36UGXgmQAGPuCfSNjSvwz4x4H3p+/mvQL4VGSlcr7ZNlJ3KmomgAGPpBxGFAlmpYg2ypnkiRF6tanI407huRR1eJbcFQ7e/HyW4oT+bgIY8GDqbqQ4/DGi8NeKEWB5MAK6s28TCYwiEZ8VqTsFNRPAgEcx5fnV2/+lBzIljJgO7LxxwHMid9NMALkRzWjvtsiwV10FjMzYlaKmFE77W5EtuD0S80hzg1czAQx0iHR+PzaM9amA3F8tSyOQciZfeRVFvjWICWCgo/wcQKGsY6S259YYTBbqKGOSMifFiBKqfi1GcQI6JoCBDuJ2Ce68tfqxpwydEovE5gmUG3Hsy9eUNgxR1wQwxFEJ8eoUxz5GnjSAdNgx7Sypk+IPsA+g05c1iAlgoKOcklhiVeAnA+3HUJql2AiKthMjOhSkw0E1iAlgoKP8D5Gfo+4BHjLQPgypWY8HlBAlRk4E5IJdg5gABjrKsSm/aoj4m2OIVgTujjSk05dtMxJHVlVczQRQfAgWb8C1wDMi2vYd4KkRelaBfweWRQCh6MLyHahBTAADHWU908dkg1X8OwWXtMxGIDaVWNfJOGa3tD8NE0B/WCfVZAJIgitK2QTwYJhMAFFTp38lPwLkx9yPACaA/LOqI4t+CZgXWL8EXBxP7wDyzrNs1vwZMBuU9xryZ0ATQN4Z1bE1OwLlBdiOQCaAvDOqY2tKXW1X4Hwg2xXYBJBvNvVgyYeB8oLsw0AmgLwzqmNrPg6cF2AfBzYB5J1RHVtzQJC8ADsgiAkg74zqwZpDguUB2SHBlsbRnwHzzLFOrDgoaB5YHRTUBJBnJvVsxWHB8wDusOAmgDwzqWcrTgzSHnAnBlk+hn4EaD/HOrXg1GDt4E35/u/UYMvHejPgizHDsUKM0jydX0XqHwKIsWoSJwdtN9op71GcHNQE0G62dVDa6cGbg+r04LOx8yPAbIyKayhE1RaRrTgzIZtwpMnRqp0BKGdCjFwKiDBqExPACEb8IOCwhHbukJBTIMHsqFQV2/+zCS1WFGBFA65NTAAjGPHnAYpmEyuKJbBVrPJE9c5PDOxZa3IVE8BIFoASVeyV0NZdgVMS9KekqjyJJyd06LiQiCWhyGRUTQAjGcrUXcCVgM7A1ygKlLphQsdrvfsLIhNAwkQprZq6C/gI8JbSje65/sOBAxLqrPnubwJImChDUE3dBajNBwJaFDXIzsBpiR2t+e5vAkicLENQT90FqM3RHlxD6GDDNjwdUEKPFKn97m8CSJktA9FtsguoIX3Y94AnJI5R7Xd/E0DihBmKepNdwJcBTfgpytnAjokd893/PsD8EjBx4gxBvckuQO2e4lmKlAk8f+x89zcBDGEtN27D24AjG5T+DPDyBuWGWCQ21dfCtsufQoeELN4BjHoOHN3wM9/3g6fgdSPt/aaAzjys3qD9BwOHNig31SIpO6jol8k+DtzfdIlNIbZYi3YBTu+vqVlqSgnvtbBC5Vl4c5ZWTMeICWACY3kzoGPDTeQIQItqDHIMsG/Dhn4VWL9h2SkXMwFMYHTXAW5s0Q+5DetxYqhnB+Tbr8QeKe69C+FYC7i1BUZTLWoCmMjI6vTfeS37oscJEcHnWtrJVVxHerXwt2xpcD3gmpY2plrcBDChkd0PUAactqIXbCKCS9oaalhegTm08GODeSyvmj2AExq2o4ZiJoCJjfLuwPGZ+vQxQIEyLwDuyGRzKTMrA5sDuuvvmakufSo9KpOtqZoxAUxwZJ8NfD1jv+4EFDJLEWHPAa7NZPspYdEr3JkeYVbJZFdmtgYUFMSyfARMABOdIWuGdwLP7aB/N4SdwfXAD4EfhUu/37OgvhWBxwGPDZd+18LXc70O8OQWnQnQ9+qbchueqD0TwEQHdq5bxwL79NjHWwIpqEot9mU91q3gqW1fGPbY3EFUZQIYxDB024j3hHMA3dZS1rp8BPTi0JKGgAkgDa/Rar8J0Am4Kcr+mb5+TBGbWX0yAcxCaEJ/1ylCHYRJCS465O6L0HTpqLOlGQImgGa4jbrU2InACz/f9DMB5MNydJbGRgRe+PmnmAkgP6ajszh0IvDC725KmQC6w3Z0lkUE24RPaZsUbv0XgAsBnU/wM353g2EC6A7bUVteF9gOeGm4Vuq4N3cBnw7OS1r4cuixdI+ACaB7jEdfw8OAbQMhiBRWy9QjRStWQE9duuP/IpNdm4lHwAQQj5U1AwJrBC+/tef9nP+7PAAlcg3+wbyf83/X324zosURMAEUHwI3wAiUQ8AEUA5712wEiiNgAig+BG6AESiHgAmgHPau2QgUR8AEUHwI3AAjUA4BE0A57F2zESiOgAmg+BC4AUagHAImgHLYu2YjUBwBE0DxIXADjEA5BEwA5bB3zUagOAImgOJD4AYYgXIImADKYe+ajUBxBEwAxYfADTAC5RAwAZTD3jUbgeIImACKD4EbYATKIWACKIe9azYCxREwARQfAjfACJRDwARQDnvXbASKI2ACKD4EboARKIeACaAc9q7ZCBRHwARQfAjcACNQDgETQDnsXbMRKI6ACaD4ELgBRqAcAoMggNuBR0dgcCKwW4SeVYyAEYhD4IPAH8epsh5wTYzuCjFK83S+CTwrosxVwIYRelYxAkYgDoGPA7vEqbJmbDKXVAJQWqiXRDTiZ8DKEXpWMQJGIA4BJV9V/sdZcjfwG7OU5v6eSgCnAq+LNK4Mtl+J1LWaETACSyOwCnBHJEBK5ab0b1GSSgDvB94RZRkOAKRvMQJGoB0C+wEfjjRxNfD8SF1SCeA1wBmRxs8LOewj1a1mBIzAEgicm7CWjgP2jkUylQAeAdwZaxzYAzghQd+qRsAIPBCB3YHjE0DZHjgnVj+VAGRXOwDtBGLk28DGgPLLW4yAEUhDYHXgMuBpkcX+E1gtUvdetSYEsCfw0YRKzgR2StC3qhEwAvchkPLtX/r6VPj6FPCaEMA6wI0plQAmgUTArF49Aq8EPpmIgha/SCBamhCAjB8BvDO6lvsU3wcclFjG6kagRgTk8ae7f4pcAGyRUkC6TQlgLeBLwJMTKzwNeBdwc2I5qxuBGhBYN3zu26ZBZ1VGX96SpCkBqJJ9gGOTartP+RbgZOAk4NoG5V3ECEwNgWcCbwB2BZY16Jzeye3VoFzjHcBcXecDWzapGLgLOAuQe7E8DP+voR0XMwJjRGAlYAdgR+APAf27iegL24uA65sUbrMDUH0vAOSkEHNCcHnt+yVwEaDThuqQflqMwNQQ0Cc6fdrTz01bLPr5uMg1X4/WjaQtAahSsdfpjWp3ISNgBNogoG1/yif5B9WVgwBkdF/gmDY9cVkjYASSEDgEUJCQVpKLANQIvd1/b6vWuLARMAIxCOjd29YxirN0chKA6toIuHxWpf67ETACjRHQqcD9G5deUDA3Aci8fASOSjgvkKsvtmMEpozAbcDbwxezbP3sggDmGifPvwOztdSGjEC9CJwdvGivyw1BlwSgtm4Stiuvyt1w2zMCFSBwBXBkl1/ZuiaAuTESAei5RYRgMQJGYPkI3BQWvhZ/p9IXAcx1QseC5bWkGAHrd9ozGzcC40JA2/uLgStDQI9b+2h+3wQwv09rhB3BBsH/WT7Quh7T0B+6D7xchxFog8CPAV06DzP3+zeASwHd9XuXkgTQe2ddoREwAg9EwATgGWEEKkbABFDx4LvrRsAE4DlgBCpGwARQ8eC760bABOA5YAQqRsAEUPHgu+tGwATgOWAEKkbABFDx4LvrRsAE4DlgBCpGwARQ8eC760bABOA5YAQqRsAEUPHgu+tGwATgOWAEKkbABFDx4LvrRsAE4DlgBCpGwARQ8eC760bABOA5YAQqRsAEUPHgu+tGwATgOWAEKkbABFDx4LvrRsAE4DlgBCpGwARQ8eC760bABOA5YAQqRsAEUPHgu+tGwATgOWAEKkbABFDx4LvrRsAE4DlgBCpGwARQ8eC760bABOA5YAQqRsAEUPHgu+tGwATgOWAEKkbg/wHVGylMwR0/jwAAAABJRU5ErkJggg==;" vertex="1" parent="1">
          <mxGeometry x="467" y="-203" width="31" height="31" as="geometry" />
        </mxCell>
        <mxCell id="BWZjfHxMxovDK7LopNrh-31" value="" style="shape=parallelogram;perimeter=parallelogramPerimeter;whiteSpace=wrap;html=1;dashed=1;fillColor=#E6E6E6;strokeColor=#666666;fontColor=#333333;" vertex="1" parent="1">
          <mxGeometry x="583.47" y="-170" width="139.05" height="60" as="geometry" />
        </mxCell>
        <mxCell id="BWZjfHxMxovDK7LopNrh-32" value="" style="shape=image;verticalLabelPosition=bottom;labelBackgroundColor=#ffffff;verticalAlign=top;aspect=fixed;imageAspect=0;image=data:image/png,iVBORw0KGgoAAAANSUhEUgAAAQAAAAEACAYAAABccqhmAAAUFklEQVR4Xu2df6xlV1XH17r3df5wOpiSFErB2iBlSmkIgYmFGkhLCHREG2NCCbQBEgsTMNF05p195k01bxTLfWefm8HxB8ZiMSS0BhoCVJCiEioFawkF/AGmjViiUmjBalr8h7x3l9nljRlw5r171j3vrbPX/p7k5k379tpr78/63u9b995zzmUq6Gia5jlEdC0zX0pEF6SHiDwr/WTmcwtCga0SPSIi3x6NRk/9ZOb08+MhhK+WBIe9bzbG+BIiehURvY6IrvK+X+xvYQL/ysx3zWazv9mzZ889N910038vPOOAJ3BrAE3THGDmZSJ6w4D5Y2nDJvDvzDytqur3hr1M/ercGcBkMjlvPB6nJ3567NGjQSQI/B+BezaN4JPemLgygKZp3sLMNRG9wFuhsB97Asx823g8DocPH37cfjX9rMCNATRNcyszv60fLJgFBM5K4J+Y+caqqu73wCh7Azhx4sTTNzY27hWRyzwUBHvIg4CI3FDX9e15rPbsq8zaAJqm+VlmduHEuQupxPWLyG/VdX08571nawBra2s/ORqNXH9Ek7OwClr7wRDC3bnuN1sDiDF+Fp/r5yo7d+t+ZQjh3hx3laUBtG17UkR+LUfgWLNLAk+Mx+Orjhw58pXcdpedAcQY30FE780NNNbrm4CIPFDX9YHcdpmVAWye5HMfEe3vCfQPiOjRzcf3e5oT02RAQEQuZOZ0Hci+vpYrIofqur61r/l2Y56sDKBpmuPMvLogmMdE5IPj8fijy8vLn19wLoRnTuDEiRPPW19fP8jMB0Xk4CLbybELyMYAmqbZz8zpr/95CxTpJDOfrKrq4QXmQKhTAm3bHhKRY0R0kXaLuXUB2RhAjDG97k+v/7XHdSGEO7XBiCuDwOYfmvcR0Ss0O86tC8jCAJqm2cfM3ySip2uKsr6+/oxjx459VxOLmDIJtG27KiKqk3xms9nPHz169FM5kMvCAGKMbySiO5RAnxdC+IYyFmEFE4gxfoCI3qxA8PshhCw+ps7FAD5IRNd3LQQz/3JVVR/tGofxIJAIrK2tXTQajb5AROlOUnMfIvIvdV1fMneA4cBcDOA/Fe3/PSGEqw3ZIrUDAjHGdF+JtutWRqPRgeXl5Qe6xu32+MEbwGQyuWo8HqfTfjsdInJjXde3dQrCYBD4MQKrq6t79u7dmz59SreWm/vI5UKhwRuA8vX/40tLS5d4unHD3MrDwN4JxBhvIaL08WCX49YQwqEuARZjB28ATdMcSbdj6gjn9hDCDR1jMBwEzkggxvhiIup0nj8z/3lVVdcOHengDSDGmJ78R7qAFJFfresa1wt0gYaxWxKIMT7R5bThXM4HyMEA0sd/6WPAuQ9mvrKqqvS6DQcI9EKgaZoHmfn5HSZ7JITw7A7jTYbmYACdr/sPIQx+XybVRlI1Ac39J3LQ4eCfKF7Bq5WIQBMCXnUIAzCRU7ekx48f/4l9+/bt39jYuFRE+roUutsiOoxm5i9ubGx8fWVlJZ2+7eKAARiV0Sv4eXFuXgKdbnd+4bwxQxmX3gkfj8dv9fBxrFcdogMYyrPlDOuIMX6YiF4/4CXOtTRmfm7ul2DDAOYqdf+DvILfjlSM8TVE9OntxmXy+/QO+kurqvqfTNb7/5bpVYfoAAaqyLZtvyAiVw50eZplTUMIlSZwCDEwAKMqeAW/Hc62bZ8UkXO3G5fR7/8yhPDajNb7I0v1qkN0AANU5HQ6vWw2m31tgEtTL0lEHq3r+gL1BMaBMACjAngFvxXOGGO6lvwhI+Q7lfZrIYTLd2rynZ7Xqw7RAey0cpTzN03zGDOfrwwfYti7Qwg3D3Fh86wJBjAPpR0Y4xX8dqjatr1LRH5xu3G5/H40Gl2zvLyc7acaXnWIDmCgz6C2ba8Qkb8b6PI6LSuXS2O3eVnm8poUGEAnKe/u4J6+CGV3F/1j2UTkK3Vdd7qbjumCz5IcHYBRVbyCnxdnjPFn0j3p0jkBzPzMeeMGMO4+EYl1XX9sAGtZeAledYgOYGFp7N4Ek8nkYiJKj0Efo9EofVHmk4NeZMfFwQA6AutruFfwffHBPLtDwKsO0QHsjn6QJXMCMACjAnoFb4QTaZUEvOoQHYBSEAgriwAMwKjeXsEb4URaJQGvOkQHoBQEwsoiAAMwqrdX8EY4kVZJwKsO0QEoBYGwsgjAAIzq7RW8EU6kVRLwqkN0AEpBIKwsAjAAo3p7BW+EE2mVBLzqEB2AUhAIK4sADMCo3l7BG+FEWiUBrzpEB6AUBMLKIgADMKq3V/BGOJFWScCrDtEBKAWBsLIIwACM6u0VvBFOpFUS8KpDdABKQSCsLAIwAKN6ewVvhBNplQS86hAdgFIQCCuLAAzAqN5ewRvhRFolAa86RAegFATCyiIAAzCqt1fwRjiRVknAqw7RASgFgbCyCMAAjOrtFbwRTqRVEvCqQ3QASkEgrCwCMACjensFb4QTaZUEvOoQHYBSEAgriwAMwKjeXsEb4URaJQGvOkQHoBQEwsoiAAMwqrdX8EY4kVZJwKsO0QEoBYGwsgjAAIzq7RW8EU6kVRLwqkN0AEpBIKwsAjAAo3p7BW+EE2mVBLzqEB2AUhAIK4sADMCo3l7BG+FEWiUBrzpEB6AUBMLKIgADMKq3V/BGOJFWScCrDtEBKAWBsLIIwACM6u0VvBFOpFUS8KpDdABKQSCsLAIwAKN6ewVvhBNplQS86hAdgFIQCCuLAAzAqN5ewRvhRFolAa86RAegFATCyiIAAzCqt1fwRjiRVknAqw7RASgFgbCyCMAAjOrtFbwRTqRVEvCqQ3QASkEgrCwCMACjensFb4QTaZUEvOoQHYBSEAgriwAMwKjeXsEb4URaJQGvOkQHoBQEwsoiAAMwqrdX8EY4kVZJwKsO0QEoBYGwsgjAAIzq7RW8EU6kVRLwqkN0AEpBIKwsAjAAo3p7BW+EE2mVBLzqEB2AUhAIK4sADMCo3l7BG+FEWiUBrzpEB6AUBMLKIgADMKq3V/BGOJFWScCrDtEBKAWBsLIIwACM6u0VvBFOpFUS8KpDdABKQSCsLAIwAKN6ewVvhBNplQS86hAdgFIQCCuLAAzAqN5ewRvhRFolAa86RAegFATCyiIAAzCqt1fwRjiRVknAqw7RASgFgbCyCMAAjOrtFbwRTqRVEvCqQ3QASkEgrCwCMACjensFb4QTaZUEvOoQHYBSEAgriwAMwKjeXsEb4URaJQGvOkQHoBQEwsoiAAMwqrdX8EY4kVZJwKsO0QEoBYGwsgjAAIzq7RW8EU6kVRLwqkN0AEpBIKwsAjAAo3p7BW+EE2mVBLzqEB2AUhAIK4sADMCo3l7BG+FEWiUBrzpEB6AUBMLKIgADMKq3V/BGOJFWScCrDtEBKAWBsLIIwACM6u0VvBFOpFUS8KpDdABKQSCsLAIwAKN6ewVvhBNplQS86hAdgFIQCCuLAAzAqN5ewRvhRFolAa86RAegFATCyiIAAzCqt1fwRjiRVknAqw7RASgFgbCyCMAAjOrtFbwRTqRVEvCqQ3QASkEgrCwCMACjensFb4QTaZUEvOoQHYBSEAgriwAMwKjeXsEb4URaJQGvOkQHoBQEwsoiAAMwqrdX8EY4kVZJwKsO0QEoBYGwsgjAAIzq7RW8EU6kVRLwqkN0AEpBIKwsAjAAo3p7BW+EE2mVBLzqEB2AUhAIK4sADMCo3l7BG+FEWiUBrzpEB6AUBMLKIgADMKq3V/BGOJFWScCrDtEBKAWBsLIIwACM6u0VvBFOpFUS8KpDdABKQSCsLAIwAKN6ewVvhBNplQS86hAdgFIQCCuLAAzAqN5ewRvhRFolAa86RAegFATCyiIAAzCqt1fwRjiRVknAqw7RASgFgbCyCMAAjOrtFbwRTqRVEvCqQ3QASkEgrCwCMACjensFb4QTaZUEvOoQHYBSEAgriwAMwKjeXsEb4URaJQGvOkQHoBQEwsoiAAMwqrdX8EY4kVZJwKsO0QEoBYGwsgjAAIzq7RW8EU6kVRLwqkN0AEpBIKwsAjAAo3p7BW+EE2mVBLzqEB2AUhAIK4sADMCo3l7BG+FEWiUBrzpEB6AUBMLKIgADMKq3V/BGOJFWScCrDtEBKAWBsLIIwACM6u0VvBFOpFUS8KpDdABKQSCsLAIwAKN6ewVvhBNplQS86hAdgFIQCCuLAAzAqN5ewRvhRFolAa86RAegFATCyiIAAzCqt1fwRjiRVknAqw7RASgFgbCyCMAAjOrtFbwRTqRVEvCqQ3QASkEgrCwCMACjensFb4QTaZUEvOoQHYBSEAgriwAMwKjeXsEb4URaJQGvOnTZAWxsbFytrDPCQOCMBMbj8XuI6MVd8IQQBv/8GvwCNc7bpUgYCwI7RQAG0ANZGEAPEDGFCQEYQA/YYQA9QMQUJgRgAD1ghwH0ABFTmBCAAfSAHQbQA0RMYUIABtADdhhADxAxhQkBGEAP2GEAPUDEFCYEYAA9YIcB9AARU5gQgAH0gB0G0ANETGFCAAbQA3YYQA8QMYUJARhAD9hhAD1AxBQmBGAAPWCHAfQAEVOYEIAB9IBdYwDMfHw2m/3IdQ6j0UhO/b/T/31qidv9/vStnCn+TL+fd9zZMHWJ77Kn7ebtoWwep3gLM1/cZWMwgC60zjJWYwA5gO8BDabYRQJedejyakAYwC4+MwpJBQMwKrRX8EY4kVZJwKsO0QEoBYGwsgjAAIzq7RW8EU6kVRLwqkN0AEpBIKwsAjAAo3p7BW+EE2mVBLzqEB2AUhC5hk2n08tms9kLReSFzHwZM2+IyN+LyNeJ6MG6rh/MdW87uW4YwE7S3WJur+B3G2fTNPuZ+XeJ6JqtcovI55j5N0II9+72Goecz6sO0QEMWXU9ra1pmmuZ+eMdp7s5hPDujjFuh8MAjErrFfxu4Ywxpif+tZp8IvLpuq637Bg08+YY41WH6AByVOOca26apmLmOOfwsw17XQjhLxacI/twGIBRCb2C32mck8nk4vF4/HAfeUaj0fnLy8vf62OuXOfwqkN0ALkqcpt1xxg/TESv72N7zPy+qqre3sdcuc4BAzCqnFfwO4lzOp1eOpvN/rnPHLPZ7EVHjx79xz7nzGkurzpEB5CTCudca4zxzUT0gTmHzzvsnSGEP5p3sLdxMACjinoFv5M4Y4x/TER9t+x3hBCu38l1D3lurzpEBzBk1SnXFmP8BhE9Vxl+trB/CyH8dM9zZjMdDMCoVF7B7yTOGGN697/T7avmWM9/hBB+ao5xLod41SE6AIdyjTH+KRG9teet3RlCuK7nObOZDgZgVCqv4HcSZ9M0b2fm9D5An8fhEMJ7+pwwp7m86hAdQE4qnHOt0+n0pbPZ7EtzDp9rGDNfWVXVfXMNdjgIBmBUVK/gdxpnjPFviejlPeX5TAjh1T3NleU0XnWIDiBLOW6/6BhjOgswnQ248CEiV9R1/cWFJ8p4AhiAUfG8gt8NnD2dDlyFEKa7sd4h5/CqQ3QAQ1ZdD2uLMcoi0+A7Fn5IDwawiIoWiPUKfgEknUNjjOlOQL/eMfCvQgiv6RjjdrhXHebQAdxBRG/soqzRaHRgeXn5gS4x3sduvifwB0T0jK32ysxPzGaz36nruvXOpMv+mqZ5kJmf3yHmyRDC0zqMNxmagwGk159HutARkUN1Xd/aJaaEsW3bvmg2m72MmS9n5nRj0MuJaEZEXyWif0g3BSWiL4cQ0n/jOI1AjPEJItrXAcojIYRndxhvMnTwBtA0zRFm7vom1O0hhBtMiCKpOwKay6tF5KG6rvcPHcbgDSDGmNr/9DKgy/H40tLSJYcPH368SxDGgsCZCDRNs8LMnW6QKiIP1HV9YOhEB28Ak8nkqvF4/NmuIEXkxrqub+sah/EgcDqB1dXVPXv37k1nQL6kI5l7QghXd4zZ9eGDN4BEpGmax5j5/I50sihAxz1h+C4TiDEuE5HmDdGVEMLaLi+3c7pcDOAPmfmdnXdHdF0I4U5FHEJAIP3hSV+m8tdE9JyuOHK5diIXA9B8scVTNWPml1VVdX/XAmI8CMQYP0dEr+hKQkS+W9f1lh+3dp1zp8ZnYQBt2+6dzWYPK14GPMVNRJ5W1/WTOwUR8/oj0DTNcWZeVe4sm3snZGEAqQgxxvcS0TuUBUkm8Oq6rj+jjUdcGQTW1tYuGo1G7yKidGNV1ZHTeSjZGMDm67H0bux5qqr8MOgkM5+sqqqXL8xYYB0IHSCBtm0PicgxIrpIu7xcPv47tb9sDCAteMG27NSeHyOijxDRXSGEu7WFRpwPAptfl/5LIvJKZn7torvK6a9/2mtWBjCZTM4bj8epC+jrDKsfENGjm4/vL1p8xOdDQEQuZOZndTy9d8sN5vbXPzsD2HwvIL0PkN4PwAECgyKQ21//LA1g0wRuJ6I3Dar6WEzpBP4khPC23CBk9RLgdLgxxvTdd5fmBhzrdUkg27NOszWAW2655ZnnnHPOd1zKCZvKicC3QgidzxQcygazNYDNlwI/R0SfHwpMrKM4At8LIXS9RmVQkLI2gEQynSUoIncR0asGRRaL8U7g/SGEX8l9k9kbwKkCNE3zm8z827kXBOvPgoCbb0lyYwBJNk3TXM/MNxPRC7KQERaZG4H0xvO7Qgh/ltvCz7ZeVwaQNrl5slC6hjs99ngpFPZhSiCdMDbd2NiYrqys/JfpSnpO7s4ATntJcICZkwm8oWdmmK4sAh8SkWld171+1+JQELo1gFOA27a9goiuEZGDRJT+jQMEtiNwPzN/ioju9n4vCfcGcHqlJ5PJxUtLS78gIun+7hekh4ik88EvYOZzt1MFfu+HgIikaz++w8zfTj83//3Q+vr6J1ZWVr7pZ6db7+R/AfG3wYh8z3EtAAAAAElFTkSuQmCC;" vertex="1" parent="1">
          <mxGeometry x="446" y="-220.24" width="73.24" height="73.24" as="geometry" />
        </mxCell>
        <mxCell id="BWZjfHxMxovDK7LopNrh-33" value="" style="endArrow=classic;html=1;fontSize=14;exitX=0.45;exitY=1.067;exitDx=0;exitDy=0;exitPerimeter=0;" edge="1" parent="1">
          <mxGeometry width="50" height="50" relative="1" as="geometry">
            <mxPoint x="282" y="-103.98000000000002" as="sourcePoint" />
            <mxPoint x="282" y="-18" as="targetPoint" />
          </mxGeometry>
        </mxCell>
        <mxCell id="BWZjfHxMxovDK7LopNrh-35" value="" style="endArrow=classic;html=1;fontSize=14;exitX=0.45;exitY=1.067;exitDx=0;exitDy=0;exitPerimeter=0;" edge="1" parent="1">
          <mxGeometry width="50" height="50" relative="1" as="geometry">
            <mxPoint x="467" y="-108.00000000000001" as="sourcePoint" />
            <mxPoint x="467" y="-22.02" as="targetPoint" />
          </mxGeometry>
        </mxCell>
        <mxCell id="BWZjfHxMxovDK7LopNrh-36" value="" style="endArrow=classic;html=1;fontSize=14;exitX=0.45;exitY=1.067;exitDx=0;exitDy=0;exitPerimeter=0;" edge="1" parent="1">
          <mxGeometry width="50" height="50" relative="1" as="geometry">
            <mxPoint x="638.5899999999999" y="-110.00000000000001" as="sourcePoint" />
            <mxPoint x="638.5899999999999" y="-24.02" as="targetPoint" />
          </mxGeometry>
        </mxCell>
        <mxCell id="BWZjfHxMxovDK7LopNrh-39" value="" style="shape=image;verticalLabelPosition=bottom;labelBackgroundColor=#ffffff;verticalAlign=top;aspect=fixed;imageAspect=0;image=data:image/png,iVBORw0KGgoAAAANSUhEUgAAAQAAAAEACAYAAABccqhmAAAVH0lEQVR4Xu2de5AlSVXGT1bPhcYOmAAEebm7sMgqqIiwgKgoEoqICAoSqKjra1dlt9mZuZk1wyhNq0t3neyZhuHh20UNHxujKGAgGKiwvBncBRRUXFREV3HFAMPBJrr7plHETMQ8qrIqp7NuVmZ+9ddEzKlzMn/fuV9n1q2qKwgHCIBAtgREtjPHxEEABAgGgCYAgYwJwAAyFh9TBwEYAHoABDImAAPIWHxMHQRgAOgBEMiYAAwgY/ExdRCAAaAHQCBjAjCAjMXH1EEABoAeAIGMCcAAMhYfUwcBGAB6AAQyJgADyFh8TB0EYADoARDImAAMIGPxMXUQgAGgB0AgYwIwgIzFx9RBAAaAHgCBjAnAADIWH1MHARgAegAEMiYAA8hYfEwdBGAA6AEQyJgADCBj8TF1EIABoAdAIGMCMICMxcfUQQAGgB4AgYwJwAAyFh9TBwEYAHoABDImAAPIWHxMHQRgAOgBEMiYAAwgY/ExdRCAAaAHQCBjAjCAjMXH1EEABoAeAIGMCcAAMhYfUwcBGAB6AAQyJgADyFh8TB0EYADoARDImAAMIGPxMXUQgAGgB0AgYwIwgIzFx9RBAAaAHgCBjAnAADIWH1MHgegMgJkNZAOBsRJQSkX1mYpqsLXoMICxtj7GVROAAQzcBzCAgQEj/Z4IwAD2hK/7ZBhANyNEhCMAAxiYPQxgYMBIvycCMIA94es+GQbQzQgR4QjAAAZmDwMYGDDS74kADGBP+LpPhgF0M0JEOAIwgIHZdxlAbAIMjAvpPRNIrf+Suw8ABuC545HuPAIwgMANkZoAgXGivCOB1PoPKwDHBkB43gRgAIH1T02AwDhR3pFAav2HFYBjAyA8bwIwgMD6pyZAYJwo70ggtf7DCsCxARCeNwEYQGD9UxMgME6UdySQWv9hBeDYAAjPmwAMILD+qQkQGCfKOxJIrf+wAnBsAITnTQAGEFj/1AQIjBPlHQmk1n9YATg2AMLzJgADCKx/agIExonyjgRS6z+sABwbAOF5E4ABBNY/NQEC40R5RwKp9R9WAI4NgPC8CcAAAuufmgCBcaK8I4HU+g8rAMcGQHjeBGAAgfVPTYDAOFHekUBq/YcVgGMDIDxvAjCAwPqnJkBgnCjvSCC1/sMKwLEBEJ43ARhAYP1TEyAwTpR3JJBa/2EF4NgACM+bAAwgsP6pCRAYJ8o7Ekit/7ACcGwAhOdNAAYQWP/UBAiME+UdCaTWf1gBODYAwvMmAAMIrH9qAgTGifKOBFLrP6wAHBsA4XkTgAEE1j81AQLjRHlHAqn1H1YAjg2A8LwJwAAC65+aAIFxorwjgdT6DysAxwZAeN4EYACB9U9NgMA4Ud6RQGr9hxWAYwMgPG8CMIDA+qcmQGCcKO9IILX+wwrAsQEQnjcBGEBg/VMTIDBOlHckkFr/YQXg2AAIz5sADCCw/qkJEBgnyjsSSK3/sAJwbACE500ABhBY/9QECIwT5R0JpNZ/WAE4NgDC8yYAAwisf2oCBMaJ8o4EUus/rAAcGwDheROAAQTWPzUBAuNEeUcCqfUfVgCODYDwvAnAAALrn5oAgXGivCOB1PoPKwDHBkB43gRgAIH1T02AwDhR3pFAav2HFYBjAyA8bwIwgMD6pyZAYJwo70ggtf7DCsCxARCeNwEYQGD9UxMgME6UdySQWv9hBeDYAAjPmwAMILD+qQkQGCfKOxJIrf+wAnBsAITnTQAGEFj/1AQIjBPlHQmk1n9YATg2AMLzJgADCKx/agIExonyjgRS6z+sABwbAOF5E4ABBNY/NQEC40R5RwKp9R9WAI4NgPC8CcAAAuufmgCBcaK8I4HU+g8rAMcGQHjeBGAAgfVPTYDAOFHekUBq/YcVgGMDIDxvAjCAwPqnJkBgnCjvSCC1/sMKwLEBEJ43ARhAYP1TEyAwTpR3JJBa/2EF4NgACM+bAAwgsP6pCRAYJ8o7Ekit/7ACcGwAhOdNAAYQWP/UBAiME+UdCaTWf1gBODYAwvMmAAMIrH9qAgTGifKOBFLrP6wAHBsA4XkTgAEE1j81AQLjRHlHAqn1H1YAjg2A8LwJwAAC65+aAIFxorwjgdT6DysAxwZAeN4EYACB9U9NgMA4Ud6RQGr9hxWAYwMgPG8CMIDA+qcmQGCcKO9IILX+wwrAsQEQnjcBGEBg/bsECDw8lM+cgFIqqj+qUQ227i0YQOafsJFPHwYwsEAwgIEBI/2eCMAA9oTPfvKJEyfut7W19Z8DlkBqENgTgcXFxfsvLy/ftackczw5qi0AM7+QiF41Rz4oBQKuBK5XSr3a9aRQ8bEZwNuI6JtCwUJdEOhB4O1KqW/uETeKkGgM4KabbvqSyWTyH6OghkGAgIXA9vb2A44ePfqpGCBFYwBa6+uNMa+MASrGmDcBIcQNUsootqrRGAAz30pE32hprTuVUg/Ou/Uw+3kQYOZfJqJrLbXeoZR68jzGstcaURgAMz+AiP7dNlkhxEullKt7BYLzQaCLADN/LRH9VUfcA5VSo9+yRmEAVVUtCyFeYQM+mUwedODAAatJdAmL/weBvgSYeZeIirZ4Y8yLyrI80TdfqLgoDEBr/Q5jzDdg+R+qTVD3QgLM/ItE9JNtZIQQ75RS2raso4A6egPY3Nx84Pb29p1Y/o+iXzCIMwSY+WuI6PbYV6WjNwBmfhERvTx20PjkpEeAmbeJaJ9lZjcqpaxb19BUYjCAdxLR11tAfUIpdUVokKifHwGt9auNMT9tmfm7lFK2rWtwaKM2gOPHjz94Z2fnX7H8D94nGEADgfX19UcXRfFBG5x9+/Y95ODBg/82VoCjNgCt9Y3GmM15Lf+rqnrpubWKojCz2ewLjM7+e2Fh4X3T6fRPm8Z04flNMUKINyilbrvU8+vzyrI8b5xnc/Wpj/Pb+V3Kh5SZP09Ed2s7VwhxQEpp3cJeSl1f54zaAJj53UT0dW2TNcbcUZbll/mAcfz48fvs7Ox8uiPXx0+dOnXVyZMn66+AzjvOXKz8ABE9yJbD9rgoM/8dEV1lO98Y84KyLH+nKYaZ30tET+g4/8VlWa61nP8WIvq2DgabSqmDLQb2a0KIH+s4/xal1PPbDFAIsWI7XwjxRinld7Wcf0QI8bKO+p9USl3mo2fqHFrrVxpjrrfke49S6km+6vnOM1oDqKrqIUKIT3Y0g7ebf+q/nj2a7zVSyvqJxIsOZv5OInpjh0CfUUrdu6V5O+dbnyeEeKKU8n0tY/gbInpUB7NDUsrjLee/nogaP1znxP+GUqrxQ87MNxCR9btvIcSHpJT1FfSLjo2Njatns9n7OxjeOZlMHtd0z8f6+vqTiqJ4V9eHxBjzpWVZWreWXTnO/n+fm4J81us7rr5xozUArfVBY8wx20R83vzDzP9MRJd3fHieLaWsPyQXHX0MxBhza1mWjU8zMnP9nXF9u7P12Ldv330PHjz43y0f4HqvaV2BGGNuKMuy8T71qqpuEUI8r2MIf6iUem5TzPr6+tOKonhzx/mfX1xc3L+8vFwvnc87tNZLxpj/7WJARM9USv1JC4NOE7Qx6FH7ohBm3iKiu7edK4RoNd1LqefznNEaADO/h4ieaJnsR5VS1r92fUFprZ9gjKmXz9bj9OnT91hdXa3FvujQWr/BGPNMWwJjzMvLsjzQ0rg/RES/2XH+58qyXGqLYebPEdE9bDmEENdKKX+1ZQ6vNcb8cAeGtyqlvrUpZmNj45Gz2ewjXRyNMVeXZVlvl5o+TH0+wKuW6yC/IoT4iQ6Ot5dlWd/O6+XQWr/CGLNsSfZepVTrVtbLIC4xySgNYH19/bKiKD7R0cjelv/MXH8gfryDYevete/+n4i+Xyn1e011+qwgiOivlVJf3XT+ysrK3ZaWli76q3phrDHmmrIsG42GmX+JiK7r4H5KSvn4ppgTJ07ca2tr67NdvSiE+FEp5c0tJsTGGNkxhtbrAFrrbzHG/HnXGIwxX16W5d93xfX5/6qqHi+EaNyWnT1/Nptdfvjw4X/pk2+eMaM0gKqqDgkhNmwgPC//62cI6geOWo+iKL53Op3+QVNAz/1/ferDlVIfb8nxZ0TU+Jf1nPjXK6We3XR+z4uY9TWE75NS/n7LGOr9e72Pbz2EEB+TUrZeqGTmfySih3Y0ceuFRGa+hogazeGcnK3XAeoYZj5NRF/UMQaplLL2mMsHsWv1ZYyZlmVp3dK61PMVO0oDYObaTRv/ytQTt11IcgWjtX6eMeaWrvNOnz69f3V19X+a4vr89RZC3CGlbP3Gok/TGmOOl2V5qGkMfVZNZ9h9j5Tyj1oMoP5ANOY/J/5TSqlWs9Rav9kY87QOnrZtRJ8LgXV623WA1xHRd3eMwesju1rrTWPMjZaa71dKWb+h6erBIf5/dAawsbFx+Ww2qy/I2f4KeVv+a61/yxjzgx31rB/ePvt/IcTrpJTPaarTd/lORK3vm+u7/y6K4jss9zG8TAhxpKPRtpRSrdcZqqrq81Vgq4mcuRBYXwew3t1pjGm9DrCxsfH02Wz2ph4fmMe23ZPR49zzQpi5vlu1vmu19SiK4orpdGrd2rrW3Wv86AyAmaf116u2ifla/q+trd27KIr6WYPOo+2iU73/39nZOe/lEGdvHrowaVuOY8eOPWZnZ+dZXYMQQtQXkxqvstcNaIzp2kLUNzTdKqX8i6Zae72RqM45lhxa65ULb+JqmnObJl1aNP0/M9ffYLRepCUir9uOSxnjheeM0QDq74GvtkzuA0op2//74IIcIOBMQGt9zBjTeJPUmWSnlFKtW1vngh5OGJUBbG5uXrG9vf1PtnnhzT8eVEeKQQgwc32PR/3m6tZjMpk89MCBA9Yt7iCDa0k6KgNgZlWvIuex/J8nZNTKhwAz1xeK72mZcamU4rEQGZsBnCKix7XBEUK8W0ppezR4LFwxjkwJMHPXNymj2sKOxgDW1tYetrCw0Pgd+Tm9dFQp1fWwR6ath2mPgUBVVU8VQrzVNpbd3d0rjxw5Ut8vEfwYjQForUtjzDqW/8F7AgPYIwFm/gwR7besZA9LKa1b3T0OoffpozEAZq5fs2y7Pzuqn1zqrYDnwLW1tUF/lurIkSPWi1yepxNlOmaun7ZsfObjzIRuU0o9dgyTG4UBMPOVRHSHDYgxRpVlab0/YAxAQ45hY2PjybPZ7O1DjiG2n78ekkVb7p5PRbbeFj7PMY/CAKqq6nyRg6+bf+YJd961qqo6KYRofFTX11iEEE9tu5HIV40U8jBz/ch247sf6vkZY1pfzDLP+Y/CALTWtxljHmOZeOu94/OENfZazGzmMMbfVUr9wBzqRF2Cma0PVgkhbpdSensk+VJhBTcAZq4fkPlYxwRG/3rlSxXA13nM3Pk+AV+1sA3oJqm1foYxpvGlJeec/Qil1D90ZxsuYgwG8GIiusk2RSz/uxuAmev7+5/SHekl4ultzyR4yZ5AkpWVlX1LS0v1bwPe1zKd4F9rj8EA6l9XaXxH3Blwb1JKPSOBnhhsCisrK/dZWlrqeqGpt/pCiNZ3I3orkkAiZn4NEf2UZSofVErZtr6DUwhqAMeOHXvE7u6u9a0sxpgXlmVZg8TRQoCZDxNR45t+B4K2tX///ntdd9119S/j4GghoLV+ljHmj22AFhYWrjp06FDXFngwxkENQGt91BjzC5bZ7Uwmk8vwq792/Zm569eTvDeQMeY5ZVnWL97A0ULg5ptvXrzrrrvqN1t/cRskIcTPSCmtW+AhAQc1AGb+EBE1vuPuzKRbX4E1JJSYctfvEtjd3W38oZGB5/FapdSPDFwj+vQ93jf5YaXUo0NNNJgBVFV1lRCi/iGM1mM2m117+PDhxjfYhgI2trrM/BIiWg0wrk8vLi4+bHl5ufE1aQHGM8qSVVU9Vwhx0jY4ny8odYUQzAC01j9rjPk5y4D/bzKZXInlv13SoW/97Woo3BpsJ1RV1T3r90ES0f0t24CXSCl/vov1EP8fzACY+cNE9FWWSZ1USnX9SMUQTJATBLwSYOb6Lcf1247bjtbXvXsdSEOyIAZQVdVXCCE+aptcURTXTKdT6w9lDA0H+UHABwGt9fONMY2/B3E2vzHmkWVZ/q2Pei45ghhAj33rZ4uiePh0Ov0vl8kgFgTGSKB++ezCwkL9dff9LONbUUrZtsSDTC2UAXT9/BPuNx9EbiQNRYCZf5uIXmCp/xGl1FfOe3xzN4C+76+fNwjUA4HQBIqieNR0OrVujX2Pce4G0OdXdHxPEvlAIAYCth87GWr8MIChyCIvCDgSMMb8elmWXT9S65jVHj53A2DmvySiQV9b5ZUQkoHAnAgIId4ipfz2OZX7QhkYwDxpoxYI2Am8TSk1r0e6YQDoRhAYGQEYwMgEwXBAYJ4EYADzpI1aIDAyAjCA3d3dp+ABk5G1JYbjhUD94NbCwkJ9EbztgAHAALz0GpKMkAAMgIi6vgaEAYywczEkLwRgADAAL42EJHESgAHAAOLsXIzaCwEYAAzASyMhSZwEYAAwgDg7F6P2QgAGAAPw0khIEicBGEAPA4hTWowaBLwQwH0AXjAiCQjESQAGEKduGDUIeCEAA/CCEUlAIE4CMIA4dcOoQcALARiAF4xIAgJxEoABxKkbRg0CXgjAALxgRBIQiJNA+gYQpy4YNQikSWDuLwVNEyNmBQJxEoABxKkbRg0CXgjAALxgRBIQiJMADCBO3TBqEPBCAAbgBSOSgECcBGAAceqGUYOAFwIwAC8YkQQE4iQAA4hTN4waBLwQgAF4wYgkIBAnARhAnLph1CDghQAMwAtGJAGBOAnAAOLUDaMGAS8EYABeMCIJCMRJAAYQp24YNQh4IQAD8IIRSUAgTgIwgDh1w6hBwAsBGIAXjEgCAnESgAHEqRtGDQJeCMAAvGBEEhCIkwAMIE7dMGoQ8EIABuAFI5KAQJwEYABx6oZRg4AXAjAALxiRBATiJAADiFM3jBoEvBCAAXjBiCQgECcBGECcumHUIOCFAAzAC0YkAYE4CcAA4tQNowYBLwRgAF4wIgkIxEkABhCnbhg1CHghAAPwghFJQCBOAjCAOHXDqEHACwEYgBeMSAICcRKAAcSpG0YNAl4IwAC8YEQSEIiTAAwgTt0wahDwQgAG4AUjkoBAnARgAHHqhlGDgBcCMAAvGJEEBOIkAAOIUzeMGgS8EIABeMGIJCAQJwEYQJy6YdQg4IUADMALRiQBgTgJ/D9m7iB5OuTfaQAAAABJRU5ErkJggg==;" vertex="1" parent="1">
          <mxGeometry x="598.27" y="-235.47" width="109.47" height="109.47" as="geometry" />
        </mxCell>
        <mxCell id="BWZjfHxMxovDK7LopNrh-40" value="&lt;font style=&quot;font-size: 18px&quot;&gt;标准摄像机录制&lt;/font&gt;" style="text;html=1;align=center;verticalAlign=middle;resizable=0;points=[];autosize=1;fontSize=14;" vertex="1" parent="1">
          <mxGeometry x="150" y="-80" width="140" height="20" as="geometry" />
        </mxCell>
        <mxCell id="BWZjfHxMxovDK7LopNrh-41" value="&lt;font style=&quot;font-size: 18px&quot;&gt;手机摄像机&lt;/font&gt;" style="text;html=1;align=center;verticalAlign=middle;resizable=0;points=[];autosize=1;fontSize=14;" vertex="1" parent="1">
          <mxGeometry x="359" y="-80" width="110" height="20" as="geometry" />
        </mxCell>
        <mxCell id="BWZjfHxMxovDK7LopNrh-42" value="&lt;font style=&quot;font-size: 18px&quot;&gt;电脑摄像机录制&lt;/font&gt;" style="text;html=1;align=center;verticalAlign=middle;resizable=0;points=[];autosize=1;fontSize=14;" vertex="1" parent="1">
          <mxGeometry x="498" y="-80" width="140" height="20" as="geometry" />
        </mxCell>
        <mxCell id="BWZjfHxMxovDK7LopNrh-44" value="&lt;b&gt;&lt;font style=&quot;font-size: 24px&quot;&gt;录播视频&lt;/font&gt;&lt;/b&gt;" style="text;html=1;align=center;verticalAlign=middle;resizable=0;points=[];autosize=1;fontSize=14;fontColor=#4D4D4D;" vertex="1" parent="1">
          <mxGeometry x="120" y="-265" width="110" height="30" as="geometry" />
        </mxCell>
        <mxCell id="BWZjfHxMxovDK7LopNrh-45" style="edgeStyle=orthogonalEdgeStyle;rounded=0;orthogonalLoop=1;jettySize=auto;html=1;exitX=0.5;exitY=1;exitDx=0;exitDy=0;fontSize=14;fontColor=#4D4D4D;" edge="1" parent="1" source="BWZjfHxMxovDK7LopNrh-43" target="BWZjfHxMxovDK7LopNrh-43">
          <mxGeometry relative="1" as="geometry" />
        </mxCell>
      </root>
    </mxGraphModel>
  </diagram>
</mxfile>
